<?xml version="1.0" encoding="utf-8"?>
<!-- Generator: Adobe Illustrator 24.0.2, SVG Export Plug-In . SVG Version: 6.00 Build 0)  -->
<svg version="1.1" xmlns="http://www.w3.org/2000/svg" xmlns:xlink="http://www.w3.org/1999/xlink" x="0px" y="0px"
	 viewBox="0 0 566.93 566.93" style="enable-background:new 0 0 566.93 566.93;" xml:space="preserve">
<style type="text/css">
	.st0{fill-rule:evenodd;clip-rule:evenodd;fill:#47B5FB;}
	.st1{fill-rule:evenodd;clip-rule:evenodd;fill:#5BE5E5;}
	.st2{fill-rule:evenodd;clip-rule:evenodd;fill:#0396C8;}
	.st3{fill:#0396C8;}
	.st4{fill:#27515E;}
	.st5{display:none;}
	.st6{display:inline;fill:none;stroke:#D7DF23;stroke-miterlimit:10;}
	.st7{display:inline;fill:none;stroke:#D7DF23;stroke-width:0.3399;stroke-miterlimit:10;}
	.st8{display:inline;fill:none;stroke:#D7DF23;stroke-width:0.3378;stroke-miterlimit:10;}
	.st9{display:inline;fill:none;stroke:#D7DF23;stroke-width:2.3168;stroke-miterlimit:10;}
	.st10{display:inline;fill:none;stroke:#D7DF23;stroke-width:1.052;stroke-miterlimit:10;}
	.st11{display:inline;fill:none;stroke:#D7DF23;stroke-width:1.2938;stroke-miterlimit:10;}
</style>
<g id="lines">
	<g>
		<g>
			<path class="st0" d="M148.43,279.57h-20.95c-7.5,0-14.69-2.98-19.99-8.28c-5.3-5.3-8.28-12.49-8.28-19.99c0-0.03,0-0.05,0-0.08
				c0-7.5,2.98-14.69,8.28-19.99c5.3-5.3,12.49-8.28,19.99-8.28c10.62,0,22.69,0,33.31,0c7.5,0,14.69,2.98,19.99,8.28
				c5.3,5.3,8.28,12.49,8.28,19.99c0,0.03,0,0.05,0,0.08c0,7.5-2.98,14.69-8.28,19.99c-5.24,5.24-12.34,8.22-19.75,8.28l0.02,0.01
				l1.68,11.67l-14.33-11.67L148.43,279.57L148.43,279.57z"/>
		</g>
		<g>
			<path class="st1" d="M138.8,261.58h31.99c7.5,0,14.69,2.98,19.99,8.28c5.3,5.3,8.28,12.49,8.28,19.99c0,0.03,0,0.05,0,0.08
				c0,7.5-2.98,14.69-8.28,19.99c-5.3,5.3-12.49,8.28-19.99,8.28c-13.56,0-29.75,0-43.31,0c-7.5,0-14.69-2.98-19.99-8.28
				c-5.3-5.3-8.28-12.49-8.28-19.99c0-0.03,0-0.05,0-0.08c0-7.5,2.98-14.69,8.28-19.99c5-5,11.68-7.94,18.72-8.25l-0.04-0.01
				l-1.68-11.67L138.8,261.58L138.8,261.58z"/>
		</g>
		<g>
			<path class="st2" d="M106.8,270.57c0.23-0.24,0.46-0.48,0.69-0.72c5-5,11.68-7.94,18.72-8.25l-0.04-0.01l-1.68-11.67l14.31,11.65
				h31.99c5.12,0,10.09,1.39,14.42,3.96c-1.21,2.08-2.7,4.02-4.44,5.76c-5.24,5.24-12.34,8.22-19.75,8.28l0.02,0.01l1.68,11.67
				l-14.33-11.67l0.02-0.01h-20.95c-7.5,0-14.69-2.98-19.99-8.28C107.26,271.05,107.03,270.82,106.8,270.57L106.8,270.57z"/>
		</g>
		<g>
			<path class="st3" d="M240.53,237.3c2.94,0,5.62,0.27,8.04,0.8c2.42,0.54,4.5,1.41,6.22,2.63c1.73,1.22,3.07,2.84,4.02,4.87
				c0.95,2.02,1.43,4.52,1.43,7.5c0,3.21-0.71,5.89-2.12,8.04c-1.41,2.14-3.5,3.9-6.27,5.27c3.8,1.13,6.64,3.11,8.52,5.94
				c1.87,2.83,2.81,6.24,2.81,10.22c0,3.21-0.6,6-1.82,8.35c-1.21,2.35-2.84,4.27-4.88,5.76c-2.05,1.49-4.38,2.59-7,3.3
				c-2.62,0.71-5.32,1.07-8.08,1.07h-29.91V237.3H240.53z M238.8,263.1c2.42,0,4.41-0.59,5.96-1.79c1.56-1.19,2.33-3.12,2.33-5.8
				c0-1.49-0.26-2.71-0.78-3.66c-0.52-0.95-1.21-1.7-2.07-2.23c-0.86-0.54-1.86-0.91-2.98-1.12c-1.12-0.21-2.29-0.31-3.5-0.31
				h-12.71v14.91H238.8z M239.58,290.15c1.33,0,2.59-0.13,3.8-0.4c1.21-0.27,2.28-0.71,3.2-1.34c0.92-0.62,1.66-1.47,2.2-2.54
				c0.55-1.07,0.82-2.44,0.82-4.11c0-3.27-0.89-5.61-2.68-7.01c-1.79-1.4-4.15-2.1-7.09-2.1h-14.78v17.5H239.58z"/>
			<path class="st3" d="M275.8,254.89v8.57h0.17c0.58-1.43,1.35-2.75,2.33-3.97c0.98-1.22,2.1-2.26,3.37-3.12
				c1.27-0.86,2.62-1.53,4.06-2.01c1.44-0.48,2.94-0.71,4.5-0.71c0.81,0,1.7,0.15,2.68,0.45v11.78c-0.58-0.12-1.27-0.22-2.07-0.31
				c-0.81-0.09-1.59-0.13-2.33-0.13c-2.25,0-4.15,0.39-5.71,1.16c-1.56,0.77-2.81,1.83-3.76,3.17c-0.95,1.34-1.63,2.9-2.03,4.69
				c-0.4,1.79-0.61,3.72-0.61,5.8v20.8h-12.28v-46.15H275.8z"/>
			<path class="st3" d="M293.78,269.08c0.17-2.98,0.89-5.45,2.16-7.41c1.27-1.96,2.88-3.54,4.84-4.73c1.96-1.19,4.16-2.04,6.61-2.54
				c2.45-0.5,4.91-0.76,7.39-0.76c2.25,0,4.52,0.16,6.83,0.49c2.3,0.33,4.41,0.97,6.31,1.92c1.9,0.95,3.46,2.28,4.67,3.97
				c1.21,1.7,1.82,3.94,1.82,6.74v24.01c0,2.08,0.11,4.08,0.35,5.98c0.23,1.91,0.63,3.33,1.21,4.29h-12.45
				c-0.23-0.71-0.42-1.44-0.56-2.19c-0.14-0.74-0.25-1.5-0.3-2.28c-1.96,2.08-4.27,3.54-6.92,4.38c-2.65,0.83-5.36,1.25-8.13,1.25
				c-2.13,0-4.12-0.27-5.97-0.8c-1.85-0.54-3.46-1.37-4.84-2.5c-1.38-1.13-2.46-2.56-3.24-4.29c-0.78-1.73-1.17-3.78-1.17-6.16
				c0-2.62,0.45-4.78,1.34-6.47c0.89-1.7,2.04-3.05,3.46-4.06c1.41-1.01,3.03-1.77,4.84-2.28c1.82-0.5,3.64-0.91,5.49-1.21
				c1.84-0.3,3.66-0.54,5.45-0.71c1.79-0.18,3.37-0.45,4.75-0.8c1.38-0.36,2.48-0.88,3.29-1.56c0.81-0.68,1.18-1.68,1.12-2.99
				c0-1.37-0.22-2.46-0.65-3.26c-0.43-0.8-1.01-1.43-1.73-1.88c-0.72-0.45-1.56-0.74-2.51-0.89c-0.95-0.15-1.98-0.22-3.07-0.22
				c-2.42,0-4.32,0.54-5.71,1.61c-1.38,1.07-2.19,2.86-2.42,5.36H293.78z M322.14,278.45c-0.52,0.48-1.17,0.85-1.94,1.12
				c-0.78,0.27-1.61,0.49-2.51,0.67c-0.89,0.18-1.83,0.33-2.81,0.45c-0.98,0.12-1.96,0.27-2.94,0.45c-0.92,0.18-1.83,0.42-2.72,0.71
				c-0.89,0.3-1.67,0.7-2.33,1.21c-0.66,0.51-1.2,1.15-1.6,1.92c-0.4,0.77-0.6,1.76-0.6,2.95c0,1.13,0.2,2.08,0.6,2.86
				c0.4,0.77,0.95,1.38,1.64,1.83c0.69,0.45,1.5,0.76,2.42,0.94c0.92,0.18,1.87,0.27,2.85,0.27c2.42,0,4.29-0.42,5.62-1.25
				c1.33-0.83,2.3-1.83,2.94-2.99c0.63-1.16,1.02-2.33,1.17-3.53c0.14-1.19,0.22-2.14,0.22-2.86V278.45z"/>
			<path class="st3" d="M348.68,254.89v6.43h0.26c1.56-2.68,3.57-4.63,6.05-5.85c2.48-1.22,5.01-1.83,7.61-1.83
				c3.29,0,5.98,0.46,8.08,1.38c2.1,0.92,3.76,2.2,4.97,3.84c1.21,1.64,2.06,3.63,2.55,5.98c0.49,2.35,0.73,4.96,0.73,7.81v28.39
				h-12.28v-26.07c0-3.81-0.58-6.65-1.73-8.53c-1.15-1.88-3.2-2.81-6.14-2.81c-3.34,0-5.76,1.03-7.26,3.08
				c-1.5,2.05-2.25,5.43-2.25,10.13v24.19h-12.28v-46.15H348.68z"/>
			<path class="st3" d="M402.71,263.19c-1.96,0-3.6,0.46-4.93,1.38c-1.33,0.92-2.41,2.11-3.24,3.57c-0.84,1.46-1.43,3.07-1.77,4.82
				c-0.35,1.76-0.52,3.5-0.52,5.22c0,1.67,0.17,3.36,0.52,5.09c0.35,1.73,0.91,3.29,1.69,4.69c0.78,1.4,1.83,2.54,3.16,3.44
				c1.33,0.89,2.94,1.34,4.84,1.34c2.94,0,5.2-0.85,6.79-2.54c1.58-1.7,2.58-3.97,2.98-6.83h11.84c-0.81,6.13-3.11,10.8-6.92,14.02
				c-3.8,3.21-8.67,4.82-14.61,4.82c-3.34,0-6.41-0.58-9.21-1.74c-2.8-1.16-5.17-2.78-7.13-4.87c-1.96-2.08-3.49-4.57-4.58-7.45
				c-1.1-2.89-1.64-6.06-1.64-9.51c0-3.57,0.5-6.89,1.51-9.95c1.01-3.06,2.49-5.71,4.45-7.95c1.96-2.23,4.35-3.97,7.18-5.22
				c2.82-1.25,6.05-1.88,9.68-1.88c2.65,0,5.2,0.36,7.65,1.07c2.45,0.71,4.64,1.8,6.57,3.26c1.93,1.46,3.5,3.27,4.71,5.45
				c1.21,2.17,1.9,4.75,2.07,7.72h-12.02C410.98,265.84,407.95,263.19,402.71,263.19z"/>
			<path class="st3" d="M438.07,237.3v24.01h0.26c1.56-2.68,3.54-4.63,5.97-5.85c2.42-1.22,4.78-1.83,7.09-1.83
				c3.29,0,5.98,0.46,8.08,1.38c2.1,0.92,3.76,2.2,4.97,3.84c1.21,1.64,2.06,3.63,2.55,5.98c0.49,2.35,0.73,4.96,0.73,7.81v28.39
				h-12.28v-26.07c0-3.81-0.58-6.65-1.73-8.53c-1.15-1.88-3.2-2.81-6.14-2.81c-3.34,0-5.76,1.03-7.26,3.08
				c-1.5,2.05-2.25,5.43-2.25,10.13v24.19h-12.28V237.3H438.07z"/>
		</g>
	</g>
	<g>
		<g>
			<path class="st0" d="M822.19,289.23h-20.95c-7.5,0-14.69-2.98-19.99-8.28c-5.3-5.3-8.28-12.49-8.28-19.99c0-0.03,0-0.05,0-0.08
				c0-7.5,2.98-14.69,8.28-19.99c5.3-5.3,12.49-8.28,19.99-8.28c10.62,0,22.69,0,33.31,0c7.5,0,14.69,2.98,19.99,8.28
				c5.3,5.3,8.28,12.49,8.28,19.99c0,0.03,0,0.05,0,0.08c0,7.5-2.98,14.69-8.28,19.99c-5.24,5.24-12.34,8.22-19.75,8.28l0.02,0.01
				l1.68,11.67l-14.33-11.67L822.19,289.23L822.19,289.23z"/>
		</g>
		<g>
			<path class="st1" d="M812.56,271.24h31.99c7.5,0,14.69,2.98,19.99,8.28c5.3,5.3,8.28,12.49,8.28,19.99c0,0.03,0,0.05,0,0.08
				c0,7.5-2.98,14.69-8.28,19.99c-5.3,5.3-12.49,8.28-19.99,8.28c-13.56,0-29.75,0-43.31,0c-7.5,0-14.69-2.98-19.99-8.28
				c-5.3-5.3-8.28-12.49-8.28-19.99c0-0.03,0-0.05,0-0.08c0-7.5,2.98-14.69,8.28-19.99c5-5,11.68-7.93,18.72-8.25l-0.04-0.01
				l-1.68-11.67L812.56,271.24L812.56,271.24z"/>
		</g>
		<g>
			<path class="st2" d="M780.56,280.24c0.23-0.24,0.46-0.48,0.69-0.72c5-5,11.68-7.93,18.72-8.25l-0.04-0.01l-1.68-11.67
				l14.31,11.65h31.99c5.12,0,10.09,1.39,14.42,3.96c-1.21,2.08-2.7,4.02-4.44,5.76c-5.24,5.24-12.34,8.22-19.75,8.28l0.02,0.01
				l1.68,11.67l-14.33-11.67l0.02-0.01h-20.95c-7.5,0-14.69-2.98-19.99-8.28C781.02,280.72,780.79,280.48,780.56,280.24
				L780.56,280.24z"/>
		</g>
		<g>
			<path class="st3" d="M914.29,236.51c2.94,0,5.62,0.27,8.04,0.8c2.42,0.54,4.5,1.41,6.22,2.63c1.73,1.22,3.07,2.84,4.02,4.87
				c0.95,2.02,1.43,4.52,1.43,7.5c0,3.21-0.71,5.89-2.12,8.04c-1.41,2.14-3.5,3.9-6.27,5.27c3.8,1.13,6.64,3.11,8.52,5.94
				c1.87,2.83,2.81,6.24,2.81,10.22c0,3.21-0.61,6-1.82,8.35c-1.21,2.35-2.84,4.27-4.88,5.76c-2.05,1.49-4.38,2.59-7,3.3
				c-2.62,0.71-5.32,1.07-8.08,1.07h-29.91v-63.74H914.29z M912.56,262.31c2.42,0,4.41-0.59,5.97-1.79c1.56-1.19,2.33-3.12,2.33-5.8
				c0-1.49-0.26-2.71-0.78-3.66c-0.52-0.95-1.21-1.7-2.07-2.23c-0.86-0.54-1.86-0.91-2.98-1.12c-1.12-0.21-2.29-0.31-3.5-0.31
				h-12.71v14.91H912.56z M913.34,289.36c1.33,0,2.59-0.13,3.8-0.4c1.21-0.27,2.28-0.71,3.2-1.34c0.92-0.62,1.66-1.47,2.2-2.54
				c0.55-1.07,0.82-2.44,0.82-4.11c0-3.27-0.89-5.61-2.68-7.01c-1.79-1.4-4.15-2.1-7.09-2.1h-14.78v17.5H913.34z"/>
			<path class="st3" d="M949.56,254.09v8.57h0.17c0.58-1.43,1.35-2.75,2.33-3.97c0.98-1.22,2.1-2.26,3.37-3.12
				c1.27-0.86,2.62-1.53,4.06-2.01c1.44-0.48,2.94-0.71,4.5-0.71c0.81,0,1.7,0.15,2.68,0.45v11.78c-0.58-0.12-1.27-0.22-2.07-0.31
				c-0.81-0.09-1.59-0.13-2.33-0.13c-2.25,0-4.15,0.39-5.71,1.16c-1.56,0.77-2.81,1.83-3.76,3.17c-0.95,1.34-1.63,2.9-2.03,4.69
				c-0.4,1.79-0.61,3.72-0.61,5.8v20.8h-12.28v-46.15H949.56z"/>
			<path class="st3" d="M967.54,268.29c0.17-2.98,0.89-5.45,2.16-7.41c1.27-1.96,2.88-3.54,4.84-4.73c1.96-1.19,4.16-2.04,6.61-2.54
				c2.45-0.5,4.91-0.76,7.39-0.76c2.25,0,4.52,0.16,6.83,0.49c2.3,0.33,4.41,0.97,6.31,1.92c1.9,0.95,3.46,2.28,4.67,3.97
				c1.21,1.7,1.82,3.94,1.82,6.74v24.01c0,2.08,0.11,4.08,0.35,5.98c0.23,1.91,0.63,3.33,1.21,4.29h-12.45
				c-0.23-0.71-0.42-1.44-0.56-2.19c-0.15-0.74-0.25-1.5-0.3-2.28c-1.96,2.08-4.27,3.54-6.92,4.38c-2.65,0.83-5.36,1.25-8.13,1.25
				c-2.13,0-4.12-0.27-5.97-0.8c-1.85-0.54-3.46-1.37-4.84-2.5c-1.38-1.13-2.46-2.56-3.24-4.29c-0.78-1.73-1.17-3.78-1.17-6.16
				c0-2.62,0.45-4.78,1.34-6.47c0.89-1.7,2.04-3.05,3.46-4.06c1.41-1.01,3.03-1.77,4.84-2.28c1.82-0.51,3.64-0.91,5.49-1.21
				c1.84-0.3,3.66-0.54,5.45-0.71c1.79-0.18,3.37-0.45,4.75-0.8c1.38-0.36,2.48-0.88,3.29-1.56c0.81-0.68,1.18-1.68,1.12-2.99
				c0-1.37-0.22-2.46-0.65-3.26c-0.43-0.8-1.01-1.43-1.73-1.88c-0.72-0.45-1.56-0.74-2.51-0.89c-0.95-0.15-1.97-0.22-3.07-0.22
				c-2.42,0-4.32,0.54-5.71,1.61c-1.38,1.07-2.19,2.86-2.42,5.36H967.54z M995.9,277.66c-0.52,0.48-1.17,0.85-1.95,1.12
				c-0.78,0.27-1.61,0.49-2.51,0.67c-0.89,0.18-1.83,0.33-2.81,0.45c-0.98,0.12-1.96,0.27-2.94,0.45c-0.92,0.18-1.83,0.42-2.72,0.71
				c-0.89,0.3-1.67,0.7-2.33,1.21c-0.66,0.51-1.2,1.15-1.6,1.92c-0.4,0.77-0.61,1.76-0.61,2.95c0,1.13,0.2,2.08,0.61,2.86
				c0.4,0.77,0.95,1.38,1.64,1.83c0.69,0.45,1.5,0.76,2.42,0.94c0.92,0.18,1.87,0.27,2.85,0.27c2.42,0,4.29-0.42,5.62-1.25
				c1.33-0.83,2.3-1.83,2.94-2.99c0.63-1.16,1.02-2.33,1.17-3.53c0.14-1.19,0.22-2.14,0.22-2.86V277.66z"/>
			<path class="st3" d="M1022.44,254.09v6.43h0.26c1.56-2.68,3.57-4.63,6.05-5.85c2.48-1.22,5.01-1.83,7.61-1.83
				c3.29,0,5.98,0.46,8.08,1.38c2.1,0.92,3.76,2.2,4.97,3.84c1.21,1.64,2.06,3.63,2.55,5.98c0.49,2.35,0.73,4.96,0.73,7.81v28.39
				h-12.28v-26.07c0-3.81-0.58-6.65-1.73-8.53c-1.15-1.88-3.2-2.81-6.14-2.81c-3.34,0-5.76,1.03-7.26,3.08
				c-1.5,2.05-2.25,5.43-2.25,10.13v24.19h-12.28v-46.15H1022.44z"/>
			<path class="st3" d="M1076.47,262.4c-1.96,0-3.6,0.46-4.93,1.38c-1.33,0.92-2.41,2.11-3.24,3.57c-0.84,1.46-1.43,3.07-1.77,4.82
				c-0.35,1.76-0.52,3.5-0.52,5.22c0,1.67,0.17,3.36,0.52,5.09c0.35,1.73,0.91,3.29,1.69,4.69c0.78,1.4,1.83,2.54,3.16,3.44
				c1.32,0.89,2.94,1.34,4.84,1.34c2.94,0,5.2-0.85,6.79-2.54c1.58-1.7,2.58-3.97,2.98-6.83h11.84c-0.81,6.13-3.11,10.8-6.92,14.02
				c-3.8,3.21-8.67,4.82-14.61,4.82c-3.34,0-6.41-0.58-9.21-1.74c-2.8-1.16-5.17-2.78-7.13-4.87c-1.96-2.08-3.49-4.57-4.58-7.45
				c-1.1-2.89-1.64-6.06-1.64-9.51c0-3.57,0.5-6.89,1.51-9.95c1.01-3.06,2.49-5.71,4.45-7.95c1.96-2.23,4.35-3.97,7.18-5.22
				c2.82-1.25,6.05-1.88,9.68-1.88c2.65,0,5.2,0.36,7.65,1.07c2.45,0.71,4.64,1.8,6.57,3.26c1.93,1.46,3.5,3.27,4.71,5.45
				c1.21,2.17,1.9,4.75,2.07,7.72h-12.02C1084.74,265.04,1081.71,262.4,1076.47,262.4z"/>
			<path class="st3" d="M1111.83,236.51v24.01h0.26c1.56-2.68,3.54-4.63,5.97-5.85c2.42-1.22,4.78-1.83,7.09-1.83
				c3.29,0,5.98,0.46,8.08,1.38c2.1,0.92,3.76,2.2,4.97,3.84c1.21,1.64,2.06,3.63,2.55,5.98c0.49,2.35,0.73,4.96,0.73,7.81v28.39
				h-12.28v-26.07c0-3.81-0.58-6.65-1.73-8.53c-1.15-1.88-3.2-2.81-6.14-2.81c-3.34,0-5.76,1.03-7.26,3.08
				c-1.5,2.05-2.25,5.43-2.25,10.13v24.19h-12.28v-63.74H1111.83z"/>
		</g>
		<g>
			<path class="st4" d="M885.57,308.58l0.21-0.91h13.06l-0.19,0.91h-5.91l-3.41,16.12h-1.05l3.41-16.12H885.57z"/>
			<path class="st4" d="M902.59,312.16c1.53,0,2.71,0.42,3.56,1.26c0.85,0.84,1.28,2.03,1.28,3.55c0,0.94-0.14,1.88-0.42,2.84
				c-0.28,0.95-0.69,1.81-1.24,2.57c-0.55,0.76-1.23,1.39-2.05,1.87c-0.82,0.49-1.76,0.73-2.83,0.73c-0.84,0-1.57-0.12-2.18-0.37
				c-0.61-0.25-1.12-0.6-1.53-1.05c-0.41-0.45-0.71-0.99-0.91-1.62c-0.2-0.63-0.3-1.33-0.3-2.11c0-0.92,0.15-1.84,0.45-2.77
				c0.3-0.92,0.73-1.74,1.3-2.47c0.56-0.72,1.26-1.31,2.07-1.76C900.63,312.38,901.55,312.16,902.59,312.16z M902.78,312.95
				c-0.94-0.02-1.77,0.18-2.5,0.58c-0.73,0.41-1.35,0.93-1.85,1.58c-0.5,0.65-0.88,1.39-1.14,2.21c-0.26,0.82-0.39,1.63-0.39,2.44
				c0,0.62,0.08,1.2,0.23,1.73c0.15,0.53,0.39,1,0.71,1.41c0.33,0.41,0.74,0.72,1.24,0.95c0.5,0.23,1.1,0.35,1.8,0.35
				c0.94,0,1.76-0.23,2.47-0.68c0.71-0.45,1.29-1.03,1.76-1.73c0.47-0.7,0.82-1.47,1.06-2.32c0.24-0.85,0.36-1.67,0.36-2.47
				c0-1.21-0.3-2.18-0.91-2.91C905.01,313.36,904.07,312.98,902.78,312.95z"/>
			<path class="st4" d="M923.18,307.68l-3.62,17.02h-0.91l0.64-2.74l-0.05-0.05c-0.46,0.95-1.08,1.7-1.85,2.25
				c-0.77,0.55-1.7,0.82-2.8,0.82c-0.76,0-1.43-0.13-2.01-0.38c-0.58-0.25-1.06-0.6-1.45-1.05c-0.39-0.44-0.68-0.96-0.87-1.54
				c-0.19-0.58-0.29-1.2-0.29-1.85c0-0.92,0.14-1.86,0.42-2.81c0.28-0.95,0.7-1.82,1.26-2.59c0.56-0.77,1.26-1.4,2.1-1.88
				c0.83-0.48,1.81-0.73,2.92-0.73c1.05,0,1.93,0.29,2.66,0.86c0.72,0.57,1.14,1.37,1.25,2.38h0.05l1.64-7.72H923.18z M914.79,324.2
				c0.87,0,1.65-0.25,2.32-0.75c0.68-0.5,1.24-1.13,1.68-1.89c0.44-0.76,0.78-1.59,1.01-2.48c0.23-0.89,0.35-1.72,0.35-2.5
				c0-0.45-0.08-0.89-0.23-1.32c-0.15-0.44-0.37-0.83-0.66-1.17c-0.29-0.34-0.64-0.62-1.06-0.82c-0.42-0.21-0.89-0.31-1.42-0.31
				c-0.97,0-1.82,0.22-2.55,0.67c-0.73,0.44-1.35,1.01-1.85,1.69c-0.5,0.68-0.88,1.44-1.13,2.28c-0.25,0.83-0.38,1.63-0.38,2.4
				c0,0.54,0.06,1.07,0.17,1.57c0.11,0.51,0.31,0.96,0.61,1.35c0.29,0.39,0.69,0.7,1.19,0.94C913.35,324.08,914,324.2,914.79,324.2z
				"/>
			<path class="st4" d="M931.03,312.16c1.53,0,2.71,0.42,3.56,1.26c0.85,0.84,1.28,2.03,1.28,3.55c0,0.94-0.14,1.88-0.42,2.84
				c-0.28,0.95-0.69,1.81-1.24,2.57c-0.55,0.76-1.23,1.39-2.05,1.87c-0.82,0.49-1.76,0.73-2.83,0.73c-0.84,0-1.57-0.12-2.18-0.37
				c-0.61-0.25-1.12-0.6-1.53-1.05c-0.41-0.45-0.71-0.99-0.91-1.62c-0.2-0.63-0.3-1.33-0.3-2.11c0-0.92,0.15-1.84,0.45-2.77
				c0.3-0.92,0.73-1.74,1.3-2.47c0.56-0.72,1.26-1.31,2.07-1.76C929.07,312.38,929.99,312.16,931.03,312.16z M931.22,312.95
				c-0.94-0.02-1.77,0.18-2.5,0.58c-0.73,0.41-1.35,0.93-1.85,1.58c-0.5,0.65-0.88,1.39-1.14,2.21c-0.26,0.82-0.39,1.63-0.39,2.44
				c0,0.62,0.08,1.2,0.23,1.73c0.15,0.53,0.39,1,0.71,1.41c0.33,0.41,0.74,0.72,1.24,0.95c0.5,0.23,1.1,0.35,1.8,0.35
				c0.94,0,1.76-0.23,2.47-0.68c0.71-0.45,1.29-1.03,1.76-1.73c0.47-0.7,0.82-1.47,1.06-2.32c0.24-0.85,0.36-1.67,0.36-2.47
				c0-1.21-0.3-2.18-0.91-2.91C933.45,313.36,932.51,312.98,931.22,312.95z"/>
			<path class="st4" d="M947.26,318.69c-0.03,0.22-0.06,0.45-0.08,0.67c-0.02,0.22-0.04,0.45-0.04,0.67c0,0.56,0.09,1.09,0.26,1.6
				c0.17,0.51,0.42,0.95,0.75,1.33c0.33,0.38,0.73,0.68,1.22,0.91c0.48,0.22,1.04,0.33,1.66,0.33c0.57,0,1.12-0.1,1.63-0.3
				c0.52-0.2,0.98-0.46,1.38-0.79c0.41-0.33,0.75-0.7,1.03-1.13c0.28-0.43,0.47-0.88,0.58-1.36h0.91c-0.17,0.64-0.43,1.22-0.76,1.75
				c-0.33,0.53-0.74,0.99-1.22,1.38c-0.48,0.39-1.02,0.69-1.63,0.91c-0.61,0.21-1.28,0.32-2.01,0.32c-0.78,0-1.46-0.13-2.05-0.38
				c-0.59-0.25-1.08-0.6-1.47-1.05c-0.39-0.44-0.68-0.96-0.88-1.55c-0.2-0.59-0.3-1.21-0.3-1.86c0-1.14,0.15-2.2,0.45-3.17
				c0.3-0.97,0.73-1.81,1.29-2.53c0.56-0.71,1.24-1.28,2.05-1.68c0.81-0.41,1.72-0.61,2.72-0.61c0.72,0,1.35,0.12,1.91,0.36
				c0.56,0.24,1.03,0.57,1.41,0.99c0.38,0.42,0.67,0.92,0.87,1.5c0.2,0.58,0.3,1.2,0.3,1.87c0,0.32-0.02,0.62-0.05,0.92
				c-0.03,0.29-0.07,0.59-0.12,0.89H947.26z M956.2,317.9c0.03-0.21,0.06-0.39,0.08-0.55c0.02-0.16,0.04-0.32,0.04-0.48
				c0-0.52-0.08-1.03-0.23-1.5c-0.15-0.48-0.38-0.89-0.68-1.25c-0.3-0.36-0.69-0.64-1.17-0.86c-0.48-0.21-1.03-0.32-1.67-0.32
				c-0.72,0-1.36,0.13-1.94,0.41c-0.58,0.27-1.08,0.64-1.51,1.1c-0.43,0.46-0.79,0.99-1.07,1.58c-0.29,0.6-0.5,1.22-0.64,1.87H956.2
				z"/>
			<path class="st4" d="M961.9,312.44h0.91l-0.6,2.67h0.05c0.54-0.91,1.22-1.62,2.05-2.16c0.83-0.53,1.8-0.8,2.91-0.8
				c0.46,0,0.9,0.08,1.32,0.23c0.42,0.15,0.79,0.37,1.11,0.67c0.32,0.29,0.57,0.65,0.76,1.07c0.19,0.42,0.29,0.89,0.29,1.42
				c0,0.14-0.01,0.33-0.04,0.55c-0.02,0.22-0.06,0.45-0.1,0.69c-0.04,0.24-0.08,0.46-0.12,0.68c-0.04,0.21-0.08,0.39-0.11,0.54
				l-1.5,6.7h-0.91l1.5-6.67c0.02-0.11,0.04-0.27,0.08-0.48c0.04-0.21,0.08-0.42,0.12-0.66c0.04-0.23,0.08-0.46,0.11-0.7
				c0.03-0.24,0.05-0.44,0.05-0.62c0-0.78-0.25-1.41-0.75-1.89c-0.5-0.49-1.21-0.73-2.13-0.73c-0.78,0-1.47,0.18-2.09,0.55
				c-0.61,0.37-1.14,0.84-1.6,1.42c-0.45,0.58-0.83,1.22-1.13,1.93c-0.3,0.71-0.52,1.4-0.67,2.09l-1.22,5.77h-0.91L961.9,312.44z"/>
			<path class="st4" d="M982.21,318.69c-0.03,0.22-0.06,0.45-0.08,0.67c-0.02,0.22-0.04,0.45-0.04,0.67c0,0.56,0.09,1.09,0.26,1.6
				c0.17,0.51,0.42,0.95,0.75,1.33c0.33,0.38,0.73,0.68,1.22,0.91c0.48,0.22,1.04,0.33,1.66,0.33c0.57,0,1.12-0.1,1.63-0.3
				c0.52-0.2,0.98-0.46,1.38-0.79c0.41-0.33,0.75-0.7,1.03-1.13c0.28-0.43,0.47-0.88,0.58-1.36h0.91c-0.17,0.64-0.43,1.22-0.76,1.75
				c-0.33,0.53-0.74,0.99-1.22,1.38c-0.48,0.39-1.02,0.69-1.63,0.91c-0.61,0.21-1.28,0.32-2.01,0.32c-0.78,0-1.46-0.13-2.05-0.38
				c-0.59-0.25-1.08-0.6-1.47-1.05c-0.39-0.44-0.68-0.96-0.88-1.55c-0.2-0.59-0.3-1.21-0.3-1.86c0-1.14,0.15-2.2,0.45-3.17
				c0.3-0.97,0.73-1.81,1.29-2.53c0.56-0.71,1.24-1.28,2.05-1.68c0.81-0.41,1.72-0.61,2.72-0.61c0.72,0,1.35,0.12,1.91,0.36
				c0.56,0.24,1.03,0.57,1.41,0.99c0.38,0.42,0.67,0.92,0.87,1.5c0.2,0.58,0.3,1.2,0.3,1.87c0,0.32-0.02,0.62-0.05,0.92
				c-0.03,0.29-0.07,0.59-0.12,0.89H982.21z M991.15,317.9c0.03-0.21,0.06-0.39,0.08-0.55c0.02-0.16,0.04-0.32,0.04-0.48
				c0-0.52-0.08-1.03-0.23-1.5c-0.15-0.48-0.38-0.89-0.68-1.25c-0.3-0.36-0.69-0.64-1.17-0.86c-0.48-0.21-1.03-0.32-1.67-0.32
				c-0.72,0-1.36,0.13-1.94,0.41c-0.58,0.27-1.08,0.64-1.51,1.1c-0.43,0.46-0.79,0.99-1.07,1.58c-0.29,0.6-0.5,1.22-0.64,1.87
				H991.15z"/>
			<path class="st4" d="M997.8,307.68h0.91l-3.55,17.02h-0.91L997.8,307.68z"/>
			<path class="st4" d="M1009.89,312.44h0.91l-0.55,2.55l0.05,0.05c0.22-0.4,0.48-0.77,0.77-1.12c0.29-0.35,0.62-0.66,0.99-0.92
				c0.37-0.26,0.76-0.47,1.19-0.62c0.43-0.15,0.89-0.23,1.38-0.23c0.97,0,1.71,0.27,2.23,0.81c0.52,0.54,0.77,1.29,0.77,2.24h0.07
				c0.4-0.91,0.99-1.64,1.78-2.21c0.79-0.56,1.68-0.85,2.68-0.85c0.43,0,0.84,0.06,1.24,0.19c0.4,0.13,0.75,0.32,1.06,0.57
				c0.31,0.25,0.56,0.56,0.74,0.92c0.18,0.36,0.27,0.78,0.27,1.25c0,0.38-0.03,0.76-0.1,1.13c-0.06,0.37-0.14,0.77-0.24,1.2
				l-1.55,7.27h-0.91l1.55-7.22c0.05-0.22,0.12-0.54,0.2-0.95c0.09-0.41,0.13-0.83,0.13-1.24c0-0.43-0.08-0.79-0.24-1.1
				c-0.16-0.3-0.37-0.54-0.62-0.73c-0.25-0.18-0.54-0.31-0.87-0.39c-0.33-0.08-0.66-0.12-1.01-0.12c-0.51,0-1.01,0.15-1.49,0.45
				c-0.49,0.3-0.93,0.69-1.33,1.16c-0.41,0.47-0.75,0.98-1.04,1.54c-0.29,0.56-0.48,1.1-0.6,1.62l-1.5,6.99h-0.91l1.5-6.99
				c0.08-0.32,0.14-0.69,0.19-1.12c0.05-0.43,0.07-0.83,0.07-1.22c0-0.78-0.21-1.38-0.64-1.8s-1.01-0.63-1.74-0.63
				c-0.65,0-1.25,0.19-1.79,0.56c-0.54,0.37-1.02,0.84-1.44,1.41c-0.42,0.56-0.77,1.18-1.05,1.84c-0.28,0.66-0.48,1.28-0.61,1.87
				l-1.31,6.08h-0.91L1009.89,312.44z"/>
			<path class="st4" d="M1029.96,312.44h0.91l-2.55,12.25h-0.91L1029.96,312.44z M1030.96,307.68h0.91l-0.5,2.46h-0.91
				L1030.96,307.68z"/>
			<path class="st4" d="M1033.61,320.53c0,0.1,0,0.19-0.01,0.29c-0.01,0.1-0.01,0.19-0.01,0.29c0,1.14,0.37,1.95,1.11,2.41
				c0.74,0.46,1.75,0.69,3.04,0.69c0.33,0,0.69-0.05,1.07-0.17c0.38-0.11,0.74-0.28,1.07-0.5c0.33-0.22,0.61-0.5,0.82-0.82
				c0.21-0.33,0.32-0.7,0.32-1.13c-0.02-0.59-0.19-1.05-0.54-1.39s-0.76-0.63-1.26-0.86c-0.5-0.23-1.05-0.43-1.63-0.61
				s-1.13-0.39-1.62-0.66c-0.49-0.26-0.91-0.59-1.24-0.99c-0.33-0.4-0.49-0.93-0.48-1.6c0-0.57,0.13-1.07,0.38-1.49
				c0.25-0.42,0.59-0.77,1-1.04c0.41-0.27,0.88-0.47,1.39-0.6c0.52-0.13,1.04-0.19,1.56-0.19c0.57,0,1.11,0.07,1.62,0.2
				c0.51,0.13,0.95,0.33,1.33,0.58c0.38,0.25,0.68,0.58,0.91,0.97c0.22,0.39,0.33,0.83,0.33,1.32c0,0.14,0,0.28-0.01,0.41
				c-0.01,0.13-0.02,0.29-0.04,0.5h-0.91c0.02-0.14,0.03-0.28,0.04-0.41c0.01-0.13,0.01-0.25,0.01-0.38c0-0.4-0.09-0.75-0.26-1.05
				c-0.17-0.3-0.41-0.55-0.71-0.75c-0.3-0.2-0.65-0.35-1.05-0.45c-0.4-0.1-0.82-0.16-1.26-0.16c-0.37,0-0.75,0.04-1.14,0.12
				c-0.4,0.08-0.77,0.21-1.11,0.41c-0.34,0.19-0.62,0.44-0.85,0.75c-0.22,0.31-0.33,0.7-0.33,1.16c0,0.4,0.1,0.74,0.3,1.01
				c0.2,0.28,0.46,0.52,0.77,0.73c0.32,0.21,0.68,0.39,1.08,0.54c0.41,0.15,0.81,0.3,1.23,0.44c0.43,0.14,0.85,0.3,1.25,0.48
				c0.41,0.17,0.77,0.39,1.09,0.63c0.32,0.25,0.57,0.54,0.76,0.88c0.19,0.34,0.29,0.75,0.29,1.23c0,0.6-0.13,1.14-0.39,1.6
				c-0.26,0.46-0.61,0.85-1.04,1.16c-0.43,0.31-0.91,0.54-1.45,0.69c-0.54,0.15-1.1,0.23-1.67,0.23c-0.65,0-1.26-0.06-1.84-0.19
				c-0.57-0.13-1.07-0.33-1.49-0.62c-0.42-0.29-0.76-0.66-1-1.13c-0.25-0.47-0.37-1.04-0.37-1.73v-0.38c0-0.06,0-0.13,0-0.19
				c0-0.06,0.01-0.13,0.02-0.21H1033.61z"/>
			<path class="st4" d="M1047.46,312.44h0.91l-0.55,2.55l0.05,0.05c0.22-0.4,0.48-0.77,0.77-1.12c0.29-0.35,0.62-0.66,0.99-0.92
				c0.37-0.26,0.76-0.47,1.19-0.62c0.43-0.15,0.89-0.23,1.38-0.23c0.97,0,1.71,0.27,2.23,0.81c0.52,0.54,0.77,1.29,0.77,2.24h0.07
				c0.4-0.91,0.99-1.64,1.78-2.21c0.79-0.56,1.68-0.85,2.68-0.85c0.43,0,0.84,0.06,1.24,0.19c0.4,0.13,0.75,0.32,1.06,0.57
				c0.31,0.25,0.56,0.56,0.74,0.92c0.18,0.36,0.27,0.78,0.27,1.25c0,0.38-0.03,0.76-0.1,1.13c-0.06,0.37-0.14,0.77-0.24,1.2
				l-1.55,7.27h-0.91l1.55-7.22c0.05-0.22,0.12-0.54,0.2-0.95c0.09-0.41,0.13-0.83,0.13-1.24c0-0.43-0.08-0.79-0.24-1.1
				c-0.16-0.3-0.37-0.54-0.62-0.73c-0.25-0.18-0.54-0.31-0.87-0.39c-0.33-0.08-0.66-0.12-1.01-0.12c-0.51,0-1.01,0.15-1.49,0.45
				c-0.49,0.3-0.93,0.69-1.33,1.16c-0.41,0.47-0.75,0.98-1.04,1.54c-0.29,0.56-0.48,1.1-0.6,1.62l-1.5,6.99h-0.91l1.5-6.99
				c0.08-0.32,0.14-0.69,0.19-1.12c0.05-0.43,0.07-0.83,0.07-1.22c0-0.78-0.21-1.38-0.64-1.8s-1.01-0.63-1.74-0.63
				c-0.65,0-1.25,0.19-1.79,0.56c-0.54,0.37-1.02,0.84-1.44,1.41c-0.42,0.56-0.77,1.18-1.05,1.84c-0.28,0.66-0.48,1.28-0.61,1.87
				l-1.31,6.08h-0.91L1047.46,312.44z"/>
			<path class="st4" d="M1072.08,312.16c1.53,0,2.71,0.42,3.56,1.26c0.85,0.84,1.28,2.03,1.28,3.55c0,0.94-0.14,1.88-0.42,2.84
				c-0.28,0.95-0.69,1.81-1.24,2.57c-0.55,0.76-1.23,1.39-2.05,1.87c-0.82,0.49-1.76,0.73-2.83,0.73c-0.84,0-1.57-0.12-2.18-0.37
				c-0.61-0.25-1.12-0.6-1.53-1.05c-0.41-0.45-0.71-0.99-0.91-1.62c-0.2-0.63-0.3-1.33-0.3-2.11c0-0.92,0.15-1.84,0.45-2.77
				c0.3-0.92,0.73-1.74,1.3-2.47c0.56-0.72,1.26-1.31,2.07-1.76C1070.13,312.38,1071.05,312.16,1072.08,312.16z M1072.28,312.95
				c-0.94-0.02-1.77,0.18-2.5,0.58c-0.73,0.41-1.35,0.93-1.85,1.58c-0.5,0.65-0.88,1.39-1.14,2.21c-0.26,0.82-0.39,1.63-0.39,2.44
				c0,0.62,0.08,1.2,0.23,1.73c0.15,0.53,0.39,1,0.71,1.41c0.33,0.41,0.74,0.72,1.24,0.95c0.5,0.23,1.1,0.35,1.8,0.35
				c0.94,0,1.76-0.23,2.47-0.68c0.71-0.45,1.29-1.03,1.76-1.73c0.47-0.7,0.82-1.47,1.06-2.32c0.24-0.85,0.36-1.67,0.36-2.47
				c0-1.21-0.3-2.18-0.91-2.91C1074.51,313.36,1073.56,312.98,1072.28,312.95z"/>
			<path class="st4" d="M1090.35,307.68h0.91l-3.55,17.02h-0.91L1090.35,307.68z"/>
			<path class="st4" d="M1101.14,324.7h-0.91l0.57-2.57l-0.05-0.05c-0.27,0.46-0.56,0.87-0.86,1.23c-0.3,0.36-0.64,0.66-1.02,0.92
				c-0.38,0.25-0.81,0.45-1.28,0.57c-0.47,0.13-1.01,0.19-1.63,0.19c-0.46,0-0.9-0.08-1.32-0.23c-0.42-0.15-0.79-0.37-1.11-0.67
				c-0.32-0.29-0.57-0.65-0.76-1.07c-0.19-0.42-0.29-0.89-0.29-1.42c0-0.14,0.01-0.33,0.04-0.55c0.02-0.22,0.06-0.45,0.1-0.69
				c0.04-0.24,0.08-0.46,0.12-0.68c0.04-0.21,0.08-0.39,0.11-0.54l1.5-6.7h0.91l-1.5,6.68c-0.03,0.11-0.07,0.27-0.11,0.48
				c-0.04,0.21-0.08,0.43-0.12,0.67c-0.04,0.24-0.07,0.47-0.1,0.7c-0.02,0.23-0.04,0.43-0.04,0.61c0,0.78,0.25,1.41,0.75,1.9
				c0.5,0.48,1.21,0.73,2.13,0.73c0.73,0,1.39-0.18,1.99-0.55c0.6-0.37,1.12-0.84,1.57-1.42c0.45-0.58,0.83-1.22,1.12-1.93
				c0.29-0.71,0.51-1.4,0.66-2.09l1.22-5.77h0.91L1101.14,324.7z"/>
			<path class="st4" d="M1106.29,325.56c0,1,0.31,1.76,0.93,2.26c0.62,0.51,1.43,0.76,2.43,0.76c0.86,0,1.57-0.12,2.15-0.35
				c0.57-0.23,1.04-0.54,1.42-0.94c0.37-0.4,0.67-0.87,0.88-1.42c0.21-0.55,0.39-1.13,0.54-1.75l0.55-2.43h-0.05
				c-0.46,0.81-1.05,1.44-1.78,1.88c-0.72,0.44-1.57,0.67-2.54,0.67c-0.76,0-1.43-0.12-2-0.36c-0.57-0.24-1.05-0.58-1.42-1.03
				c-0.37-0.44-0.65-0.97-0.83-1.57c-0.18-0.6-0.27-1.28-0.27-2.03c0-0.86,0.13-1.71,0.41-2.56c0.27-0.85,0.66-1.61,1.17-2.29
				c0.51-0.67,1.14-1.22,1.9-1.63c0.75-0.41,1.61-0.62,2.56-0.62c0.54,0,1.06,0.08,1.55,0.25c0.49,0.17,0.93,0.4,1.3,0.69
				c0.37,0.29,0.67,0.65,0.89,1.07c0.22,0.42,0.34,0.89,0.36,1.39h0.05l0.69-3.12h0.91l-2.53,11.68c-0.17,0.84-0.41,1.58-0.69,2.23
				c-0.29,0.64-0.66,1.19-1.13,1.64c-0.47,0.45-1.05,0.79-1.73,1.03c-0.68,0.23-1.51,0.35-2.48,0.35c-0.59,0-1.14-0.08-1.66-0.25
				c-0.52-0.17-0.96-0.41-1.34-0.74c-0.37-0.33-0.66-0.72-0.87-1.19c-0.21-0.47-0.29-1.01-0.26-1.63H1106.29z M1112.35,312.95
				c-0.81,0-1.54,0.19-2.18,0.56c-0.64,0.37-1.18,0.86-1.62,1.45s-0.77,1.27-1,2.01c-0.23,0.75-0.35,1.49-0.35,2.22
				c0,1.33,0.3,2.38,0.91,3.13c0.6,0.75,1.57,1.13,2.91,1.13c0.83,0,1.55-0.21,2.17-0.63c0.62-0.42,1.14-0.95,1.56-1.6
				c0.42-0.64,0.74-1.35,0.94-2.13c0.21-0.78,0.31-1.53,0.31-2.24c0-0.75-0.13-1.37-0.38-1.87c-0.25-0.5-0.56-0.9-0.93-1.2
				c-0.37-0.3-0.76-0.52-1.19-0.64C1113.06,313.01,1112.68,312.95,1112.35,312.95z"/>
			<path class="st4" d="M1121.07,315.97c0.32-1.37,0.93-2.34,1.84-2.93c0.91-0.59,2.05-0.88,3.43-0.88c0.3,0,0.67,0.04,1.11,0.11
				c0.44,0.07,0.85,0.21,1.25,0.43c0.4,0.21,0.73,0.51,1.01,0.88c0.28,0.37,0.42,0.87,0.42,1.49c0,0.27-0.04,0.62-0.12,1.06
				c-0.08,0.44-0.17,0.87-0.26,1.3c-0.1,0.43-0.19,0.82-0.27,1.17c-0.09,0.35-0.14,0.57-0.15,0.67c-0.08,0.32-0.17,0.67-0.26,1.05
				c-0.1,0.38-0.18,0.75-0.26,1.12c-0.08,0.37-0.15,0.7-0.2,1.01c-0.06,0.31-0.08,0.55-0.08,0.73c0,0.22,0.06,0.41,0.17,0.56
				c0.11,0.15,0.28,0.23,0.5,0.23c0.13,0,0.26-0.02,0.41-0.05c0.14-0.03,0.28-0.06,0.41-0.09l-0.14,0.81
				c-0.18,0.05-0.35,0.08-0.54,0.09c-0.18,0.02-0.35,0.02-0.51,0.02c-0.41,0-0.72-0.14-0.91-0.43c-0.19-0.29-0.29-0.56-0.29-0.83
				c0-0.13,0.02-0.29,0.07-0.49c0.05-0.2,0.09-0.38,0.12-0.54h-0.05c-0.24,0.45-0.54,0.83-0.91,1.14c-0.37,0.32-0.75,0.58-1.17,0.79
				c-0.41,0.21-0.84,0.36-1.29,0.45c-0.44,0.1-0.87,0.14-1.26,0.14c-0.52,0-1.02-0.06-1.48-0.18c-0.46-0.12-0.86-0.31-1.2-0.57
				c-0.34-0.26-0.61-0.6-0.81-1.01c-0.2-0.41-0.3-0.92-0.3-1.53c0-0.78,0.15-1.41,0.45-1.91c0.3-0.49,0.7-0.87,1.2-1.14
				c0.5-0.27,1.07-0.46,1.72-0.56c0.64-0.1,1.31-0.16,2.01-0.18c0.86-0.03,1.57-0.09,2.15-0.18c0.57-0.09,1.03-0.22,1.38-0.41
				c0.35-0.18,0.6-0.43,0.75-0.73c0.15-0.3,0.23-0.68,0.23-1.14c0-0.76-0.23-1.37-0.7-1.82c-0.47-0.45-1.26-0.68-2.37-0.68
				c-1.1,0-1.99,0.24-2.69,0.73c-0.7,0.48-1.18,1.25-1.45,2.3H1121.07z M1128.75,317.79h-0.05c-0.17,0.17-0.42,0.31-0.74,0.42
				c-0.32,0.1-0.66,0.19-1.03,0.26c-0.37,0.07-0.74,0.12-1.11,0.16c-0.37,0.03-0.69,0.06-0.94,0.07c-0.57,0.02-1.14,0.06-1.69,0.12
				c-0.56,0.06-1.05,0.2-1.49,0.41c-0.44,0.21-0.79,0.5-1.06,0.89c-0.27,0.39-0.41,0.92-0.41,1.59c0,0.46,0.09,0.85,0.26,1.17
				c0.17,0.32,0.41,0.58,0.69,0.78c0.29,0.2,0.62,0.34,0.99,0.43c0.37,0.09,0.77,0.13,1.18,0.13c0.73,0,1.37-0.13,1.92-0.38
				c0.55-0.25,1.02-0.6,1.41-1.04c0.39-0.44,0.71-0.94,0.98-1.51c0.26-0.57,0.48-1.18,0.66-1.81L1128.75,317.79z"/>
			<path class="st4" d="M1135.14,312.44h0.91l-0.67,2.93h0.05c0.44-0.92,1.05-1.69,1.82-2.3c0.77-0.61,1.7-0.92,2.8-0.92
				c0.13,0,0.25,0,0.38,0.01c0.13,0.01,0.25,0.02,0.38,0.04l-0.26,0.95c-0.24-0.06-0.49-0.1-0.74-0.1c-0.89,0-1.64,0.23-2.25,0.69
				c-0.61,0.46-1.12,1.03-1.54,1.7c-0.41,0.68-0.74,1.4-0.98,2.18c-0.24,0.78-0.43,1.48-0.57,2.1l-1.07,4.96h-0.91L1135.14,312.44z"
				/>
		</g>
	</g>
</g>
<g id="structure" class="st5">
	<path class="st6" d="M1079.95-2652.51c-7.42,11.21-17.06,21.22-28.8,29.32c-49.26,34.01-116.76,21.65-150.77-27.61
		c-0.55-0.8-1.09-1.6-1.61-2.41c-17.15-26.29-21.44-57.42-14.26-85.8c6.21-24.55,21-47.04,43.48-62.56
		c4.66-3.22,9.48-6.02,14.43-8.42c30.3-14.68,65.1-14.07,94.3,0.01c16.37,7.88,30.98,20,42.04,36.02
		c7.7,11.15,13.02,23.23,16.07,35.65C1102.06-2708.94,1096.62-2677.69,1079.95-2652.51z"/>
	<path class="st6" d="M1079.95-2652.51c-6.21,24.55-21,47.04-43.48,62.56c-14.5,10.02-30.6,16.01-46.95,18.22
		c-39.16,5.31-79.83-11.08-103.82-45.83c-25.9-37.52-24.9-85.62-1.19-121.45c7.42-11.21,17.06-21.22,28.8-29.32
		c9.18-6.34,19-11.07,29.11-14.24c15.36-4.83,31.41-6.09,46.98-3.98c16.84,2.28,33.11,8.49,47.32,18.36
		c10.42,7.23,19.73,16.42,27.36,27.47C1082.57-2713.94,1087.35-2681.76,1079.95-2652.51z"/>
	<path class="st6" d="M1094.83-2738.31c31.99,49.03,19.24,114.9-29.22,148.36c-23.13,15.97-50.27,21.71-76.09,18.22
		c-29.17-3.95-56.64-19.7-74.68-45.83c-7.7-11.15-13.02-23.23-16.07-35.65c-10.45-42.44,5.56-88.78,43.65-115.1
		c0.01-0.01,0.02-0.01,0.03-0.02c14.51-10.02,30.6-16.01,46.95-18.22c15.93-2.16,32.11-0.73,47.32,4.07
		c22.17,6.99,42.27,21.15,56.5,41.76C1093.77-2739.92,1094.31-2739.12,1094.83-2738.31z"/>
	<path class="st7" d="M942.42-2705.02c-0.01-0.26-0.01-0.51,0-0.78c0.21-8.98,7.32-17.78,20.36-23.27
		c21.43-9.03,50.79-5.75,65.59,7.33c5.64,4.99,8.35,10.69,8.35,16.33c0,0.14,0,0.29-0.01,0.43c-0.21,8.98-7.31,17.78-20.35,23.27
		c-21.43,9.03-50.8,5.75-65.59-7.33c-5.52-4.88-8.23-10.43-8.35-15.94"/>
	<polygon class="st8" points="1036.72,-2705.41 1036.72,-2704.98 1036.71,-2704.98 942.42,-2704.98 942.42,-2705.02 942.42,-2705.8 
		942.42,-2768.31 942.42,-2782.57 942.42,-2809.99 942.42,-2835.96 1036.72,-2835.96 1036.72,-2809.98 1036.72,-2782.48 
		1036.72,-2768.19 	"/>
	
		<rect x="912.24" y="-2583.44" transform="matrix(0.9798 0.2 -0.2 0.9798 -482.576 -241.4176)" class="st9" width="82.94" height="148"/>
	<path class="st9" d="M912.46-2649.8c-0.96,0.29-37.31,52.37-37.31,52.37l55.15,28.39l90.64-4.12l39.25-25.21l-34.75-40.5
		L912.46-2649.8z"/>
	
		<ellipse transform="matrix(0.9715 -0.2369 0.2369 0.9715 636.2726 182.5288)" class="st10" cx="1077.66" cy="-2556.36" rx="70.65" ry="70.65"/>
	<circle class="st11" cx="838.83" cy="-2588.48" r="86.88"/>
</g>
</svg>
