<?xml version="1.0" encoding="utf-8"?>
<!-- Generator: Adobe Illustrator 24.0.2, SVG Export Plug-In . SVG Version: 6.00 Build 0)  -->
<svg version="1.1" id="Layer_1" xmlns="http://www.w3.org/2000/svg" xmlns:xlink="http://www.w3.org/1999/xlink" x="0px" y="0px"
	 viewBox="0 0 152.4 40" style="enable-background:new 0 0 152.4 40;" xml:space="preserve">
<style type="text/css">
	.st0{fill-rule:evenodd;clip-rule:evenodd;fill:#47B5FB;}
	.st1{fill-rule:evenodd;clip-rule:evenodd;fill:#5BE5E5;}
	.st2{fill-rule:evenodd;clip-rule:evenodd;fill:#0396C8;}
	.st3{fill:#0396C8;}
	.st4{fill:#27515E;}
</style>
<title>Artboard 1</title>
<g>
	<g>
		<path class="st0" d="M20.4,23.4h-8.7c-3.1,0-6.1-1.2-8.3-3.4C1.3,17.8,0,14.8,0,11.7c0,0,0,0,0,0c0-3.1,1.2-6.1,3.4-8.3
			C5.6,1.2,8.6,0,11.7,0c4.4,0,9.4,0,13.8,0c3.1,0,6.1,1.2,8.3,3.4c2.2,2.2,3.4,5.2,3.4,8.3c0,0,0,0,0,0c0,3.1-1.2,6.1-3.4,8.3
			c-2.2,2.2-5.1,3.4-8.2,3.4l0,0l0.7,4.8L20.4,23.4L20.4,23.4L20.4,23.4z"/>
	</g>
	<g>
		<path class="st1" d="M16.4,16h13.2c3.1,0,6.1,1.2,8.3,3.4s3.4,5.2,3.4,8.3c0,0,0,0,0,0c0,3.1-1.2,6.1-3.4,8.3
			c-2.2,2.2-5.2,3.4-8.3,3.4c-5.6,0-12.3,0-17.9,0c-3.1,0-6.1-1.2-8.3-3.4C1.3,33.8,0,30.8,0,27.7c0,0,0,0,0,0
			c0-3.1,1.2-6.1,3.4-8.3c2.1-2.1,4.8-3.3,7.7-3.4l0,0l-0.7-4.8L16.4,16L16.4,16z"/>
	</g>
	<g>
		<path class="st2" d="M3.2,19.7c0.1-0.1,0.2-0.2,0.3-0.3c2.1-2.1,4.8-3.3,7.7-3.4l0,0l-0.7-4.8l5.9,4.8h13.2c2.1,0,4.2,0.6,6,1.6
			c-0.5,0.9-1.1,1.7-1.8,2.4c-2.2,2.2-5.1,3.4-8.2,3.4l0,0l0.7,4.8l-5.9-4.8l0,0h-8.7c-3.1,0-6.1-1.2-8.3-3.4
			C3.4,19.9,3.3,19.8,3.2,19.7L3.2,19.7z"/>
	</g>
	<g>
		<path class="st3" d="M58.5,1.6c1.2,0,2.3,0.1,3.3,0.3c1,0.2,1.9,0.6,2.6,1.1c0.7,0.5,1.3,1.2,1.7,2c0.4,0.8,0.6,1.9,0.6,3.1
			c0,1.3-0.3,2.4-0.9,3.3c-0.6,0.9-1.4,1.6-2.6,2.2c1.6,0.5,2.7,1.3,3.5,2.5c0.8,1.2,1.2,2.6,1.2,4.2c0,1.3-0.3,2.5-0.8,3.5
			c-0.5,1-1.2,1.8-2,2.4c-0.8,0.6-1.8,1.1-2.9,1.4C61.1,27.8,60,28,58.8,28H46.4V1.6H58.5z M57.7,12.3c1,0,1.8-0.2,2.5-0.7
			c0.6-0.5,1-1.3,1-2.4c0-0.6-0.1-1.1-0.3-1.5c-0.2-0.4-0.5-0.7-0.9-0.9c-0.4-0.2-0.8-0.4-1.2-0.5c-0.5-0.1-0.9-0.1-1.4-0.1h-5.3
			v6.2H57.7z M58.1,23.5c0.5,0,1.1-0.1,1.6-0.2c0.5-0.1,0.9-0.3,1.3-0.6c0.4-0.3,0.7-0.6,0.9-1.1c0.2-0.4,0.3-1,0.3-1.7
			c0-1.4-0.4-2.3-1.1-2.9c-0.7-0.6-1.7-0.9-2.9-0.9h-6.1v7.2H58.1z"/>
		<path class="st3" d="M73,8.9v3.5h0.1c0.2-0.6,0.6-1.1,1-1.6c0.4-0.5,0.9-0.9,1.4-1.3c0.5-0.4,1.1-0.6,1.7-0.8
			c0.6-0.2,1.2-0.3,1.9-0.3c0.3,0,0.7,0.1,1.1,0.2v4.9c-0.2,0-0.5-0.1-0.9-0.1c-0.3,0-0.7-0.1-1-0.1c-0.9,0-1.7,0.2-2.4,0.5
			c-0.6,0.3-1.2,0.8-1.6,1.3c-0.4,0.6-0.7,1.2-0.8,1.9c-0.2,0.7-0.3,1.5-0.3,2.4V28h-5.1V8.9H73z"/>
		<path class="st3" d="M80.5,14.7c0.1-1.2,0.4-2.3,0.9-3.1c0.5-0.8,1.2-1.5,2-2c0.8-0.5,1.7-0.8,2.7-1.1c1-0.2,2-0.3,3.1-0.3
			c0.9,0,1.9,0.1,2.8,0.2c1,0.1,1.8,0.4,2.6,0.8c0.8,0.4,1.4,0.9,1.9,1.6c0.5,0.7,0.8,1.6,0.8,2.8v9.9c0,0.9,0,1.7,0.1,2.5
			c0.1,0.8,0.3,1.4,0.5,1.8h-5.1c-0.1-0.3-0.2-0.6-0.2-0.9c-0.1-0.3-0.1-0.6-0.1-0.9c-0.8,0.9-1.8,1.5-2.9,1.8
			c-1.1,0.3-2.2,0.5-3.4,0.5c-0.9,0-1.7-0.1-2.5-0.3c-0.8-0.2-1.4-0.6-2-1c-0.6-0.5-1-1.1-1.3-1.8c-0.3-0.7-0.5-1.6-0.5-2.5
			c0-1.1,0.2-2,0.6-2.7c0.4-0.7,0.8-1.3,1.4-1.7c0.6-0.4,1.3-0.7,2-0.9c0.8-0.2,1.5-0.4,2.3-0.5c0.8-0.1,1.5-0.2,2.3-0.3
			c0.7-0.1,1.4-0.2,2-0.3c0.6-0.1,1-0.4,1.4-0.6c0.3-0.3,0.5-0.7,0.5-1.2c0-0.6-0.1-1-0.3-1.3c-0.2-0.3-0.4-0.6-0.7-0.8
			c-0.3-0.2-0.6-0.3-1-0.4c-0.4-0.1-0.8-0.1-1.3-0.1c-1,0-1.8,0.2-2.4,0.7c-0.6,0.4-0.9,1.2-1,2.2H80.5z M92.2,18.6
			c-0.2,0.2-0.5,0.4-0.8,0.5c-0.3,0.1-0.7,0.2-1,0.3c-0.4,0.1-0.8,0.1-1.2,0.2c-0.4,0-0.8,0.1-1.2,0.2c-0.4,0.1-0.8,0.2-1.1,0.3
			c-0.4,0.1-0.7,0.3-1,0.5c-0.3,0.2-0.5,0.5-0.7,0.8C85.1,21.6,85,22,85,22.5c0,0.5,0.1,0.9,0.3,1.2c0.2,0.3,0.4,0.6,0.7,0.8
			c0.3,0.2,0.6,0.3,1,0.4c0.4,0.1,0.8,0.1,1.2,0.1c1,0,1.8-0.2,2.3-0.5c0.5-0.3,1-0.8,1.2-1.2c0.3-0.5,0.4-1,0.5-1.5
			c0.1-0.5,0.1-0.9,0.1-1.2V18.6z"/>
		<path class="st3" d="M103.2,8.9v2.7h0.1c0.6-1.1,1.5-1.9,2.5-2.4c1-0.5,2.1-0.8,3.1-0.8c1.4,0,2.5,0.2,3.3,0.6
			c0.9,0.4,1.6,0.9,2.1,1.6c0.5,0.7,0.9,1.5,1.1,2.5c0.2,1,0.3,2,0.3,3.2V28h-5.1V17.2c0-1.6-0.2-2.7-0.7-3.5
			c-0.5-0.8-1.3-1.2-2.5-1.2c-1.4,0-2.4,0.4-3,1.3c-0.6,0.8-0.9,2.2-0.9,4.2v10h-5.1V8.9H103.2z"/>
		<path class="st3" d="M125.5,12.3c-0.8,0-1.5,0.2-2,0.6c-0.5,0.4-1,0.9-1.3,1.5c-0.3,0.6-0.6,1.3-0.7,2c-0.1,0.7-0.2,1.4-0.2,2.2
			c0,0.7,0.1,1.4,0.2,2.1c0.1,0.7,0.4,1.4,0.7,1.9c0.3,0.6,0.8,1.1,1.3,1.4c0.5,0.4,1.2,0.6,2,0.6c1.2,0,2.1-0.4,2.8-1.1
			c0.7-0.7,1.1-1.6,1.2-2.8h4.9c-0.3,2.5-1.3,4.5-2.9,5.8c-1.6,1.3-3.6,2-6,2c-1.4,0-2.7-0.2-3.8-0.7c-1.2-0.5-2.1-1.1-2.9-2
			c-0.8-0.9-1.4-1.9-1.9-3.1c-0.5-1.2-0.7-2.5-0.7-3.9c0-1.5,0.2-2.8,0.6-4.1c0.4-1.3,1-2.4,1.8-3.3c0.8-0.9,1.8-1.6,3-2.2
			c1.2-0.5,2.5-0.8,4-0.8c1.1,0,2.1,0.1,3.2,0.4c1,0.3,1.9,0.7,2.7,1.3c0.8,0.6,1.4,1.4,1.9,2.3c0.5,0.9,0.8,2,0.9,3.2h-5
			C128.9,13.4,127.7,12.3,125.5,12.3z"/>
		<path class="st3" d="M140.1,1.6v9.9h0.1c0.6-1.1,1.5-1.9,2.5-2.4c1-0.5,2-0.8,2.9-0.8c1.4,0,2.5,0.2,3.3,0.6
			c0.9,0.4,1.6,0.9,2.1,1.6c0.5,0.7,0.9,1.5,1.1,2.5c0.2,1,0.3,2,0.3,3.2V28h-5.1V17.2c0-1.6-0.2-2.7-0.7-3.5
			c-0.5-0.8-1.3-1.2-2.5-1.2c-1.4,0-2.4,0.4-3,1.3c-0.6,0.8-0.9,2.2-0.9,4.2v10H135V1.6H140.1z"/>
	</g>
	<g>
		<path class="st4" d="M46.6,31.4l0.1-0.4h5.4L52,31.4h-2.4l-1.4,6.7h-0.4l1.4-6.7H46.6z"/>
		<path class="st4" d="M53.6,32.9c0.6,0,1.1,0.2,1.5,0.5c0.4,0.3,0.5,0.8,0.5,1.5c0,0.4-0.1,0.8-0.2,1.2c-0.1,0.4-0.3,0.7-0.5,1.1
			c-0.2,0.3-0.5,0.6-0.8,0.8c-0.3,0.2-0.7,0.3-1.2,0.3c-0.3,0-0.6-0.1-0.9-0.2c-0.3-0.1-0.5-0.2-0.6-0.4c-0.2-0.2-0.3-0.4-0.4-0.7
			c-0.1-0.3-0.1-0.5-0.1-0.9c0-0.4,0.1-0.8,0.2-1.1c0.1-0.4,0.3-0.7,0.5-1c0.2-0.3,0.5-0.5,0.9-0.7C52.8,33,53.2,32.9,53.6,32.9z
			 M53.7,33.2c-0.4,0-0.7,0.1-1,0.2c-0.3,0.2-0.6,0.4-0.8,0.7c-0.2,0.3-0.4,0.6-0.5,0.9c-0.1,0.3-0.2,0.7-0.2,1c0,0.3,0,0.5,0.1,0.7
			c0.1,0.2,0.2,0.4,0.3,0.6c0.1,0.2,0.3,0.3,0.5,0.4c0.2,0.1,0.5,0.1,0.7,0.1c0.4,0,0.7-0.1,1-0.3c0.3-0.2,0.5-0.4,0.7-0.7
			c0.2-0.3,0.3-0.6,0.4-1c0.1-0.4,0.1-0.7,0.1-1c0-0.5-0.1-0.9-0.4-1.2C54.6,33.4,54.2,33.2,53.7,33.2z"/>
		<path class="st4" d="M62.1,31l-1.5,7h-0.4l0.3-1.1l0,0c-0.2,0.4-0.4,0.7-0.8,0.9c-0.3,0.2-0.7,0.3-1.2,0.3c-0.3,0-0.6-0.1-0.8-0.2
			c-0.2-0.1-0.4-0.2-0.6-0.4c-0.2-0.2-0.3-0.4-0.4-0.6c-0.1-0.2-0.1-0.5-0.1-0.8c0-0.4,0.1-0.8,0.2-1.2c0.1-0.4,0.3-0.8,0.5-1.1
			c0.2-0.3,0.5-0.6,0.9-0.8c0.3-0.2,0.7-0.3,1.2-0.3c0.4,0,0.8,0.1,1.1,0.4c0.3,0.2,0.5,0.6,0.5,1h0l0.7-3.2H62.1z M58.7,37.9
			c0.4,0,0.7-0.1,1-0.3c0.3-0.2,0.5-0.5,0.7-0.8c0.2-0.3,0.3-0.7,0.4-1c0.1-0.4,0.1-0.7,0.1-1c0-0.2,0-0.4-0.1-0.5
			c-0.1-0.2-0.2-0.3-0.3-0.5c-0.1-0.1-0.3-0.3-0.4-0.3c-0.2-0.1-0.4-0.1-0.6-0.1c-0.4,0-0.8,0.1-1.1,0.3c-0.3,0.2-0.6,0.4-0.8,0.7
			c-0.2,0.3-0.4,0.6-0.5,0.9c-0.1,0.3-0.2,0.7-0.2,1c0,0.2,0,0.4,0.1,0.7c0,0.2,0.1,0.4,0.3,0.6c0.1,0.2,0.3,0.3,0.5,0.4
			C58.1,37.8,58.3,37.9,58.7,37.9z"/>
		<path class="st4" d="M65.4,32.9c0.6,0,1.1,0.2,1.5,0.5c0.4,0.3,0.5,0.8,0.5,1.5c0,0.4-0.1,0.8-0.2,1.2c-0.1,0.4-0.3,0.7-0.5,1.1
			c-0.2,0.3-0.5,0.6-0.8,0.8c-0.3,0.2-0.7,0.3-1.2,0.3c-0.3,0-0.6-0.1-0.9-0.2c-0.3-0.1-0.5-0.2-0.6-0.4c-0.2-0.2-0.3-0.4-0.4-0.7
			c-0.1-0.3-0.1-0.5-0.1-0.9c0-0.4,0.1-0.8,0.2-1.1c0.1-0.4,0.3-0.7,0.5-1c0.2-0.3,0.5-0.5,0.9-0.7C64.6,33,64.9,32.9,65.4,32.9z
			 M65.4,33.2c-0.4,0-0.7,0.1-1,0.2c-0.3,0.2-0.6,0.4-0.8,0.7c-0.2,0.3-0.4,0.6-0.5,0.9c-0.1,0.3-0.2,0.7-0.2,1c0,0.3,0,0.5,0.1,0.7
			c0.1,0.2,0.2,0.4,0.3,0.6s0.3,0.3,0.5,0.4c0.2,0.1,0.5,0.1,0.7,0.1c0.4,0,0.7-0.1,1-0.3c0.3-0.2,0.5-0.4,0.7-0.7
			c0.2-0.3,0.3-0.6,0.4-1c0.1-0.4,0.1-0.7,0.1-1c0-0.5-0.1-0.9-0.4-1.2C66.4,33.4,66,33.2,65.4,33.2z"/>
		<path class="st4" d="M72.1,35.6c0,0.1,0,0.2,0,0.3c0,0.1,0,0.2,0,0.3c0,0.2,0,0.5,0.1,0.7c0.1,0.2,0.2,0.4,0.3,0.6
			c0.1,0.2,0.3,0.3,0.5,0.4c0.2,0.1,0.4,0.1,0.7,0.1c0.2,0,0.5,0,0.7-0.1c0.2-0.1,0.4-0.2,0.6-0.3c0.2-0.1,0.3-0.3,0.4-0.5
			c0.1-0.2,0.2-0.4,0.2-0.6h0.4c-0.1,0.3-0.2,0.5-0.3,0.7c-0.1,0.2-0.3,0.4-0.5,0.6c-0.2,0.2-0.4,0.3-0.7,0.4
			c-0.3,0.1-0.5,0.1-0.8,0.1c-0.3,0-0.6-0.1-0.8-0.2c-0.2-0.1-0.4-0.2-0.6-0.4c-0.2-0.2-0.3-0.4-0.4-0.6c-0.1-0.2-0.1-0.5-0.1-0.8
			c0-0.5,0.1-0.9,0.2-1.3c0.1-0.4,0.3-0.7,0.5-1c0.2-0.3,0.5-0.5,0.8-0.7c0.3-0.2,0.7-0.3,1.1-0.3c0.3,0,0.6,0,0.8,0.1
			c0.2,0.1,0.4,0.2,0.6,0.4c0.2,0.2,0.3,0.4,0.4,0.6c0.1,0.2,0.1,0.5,0.1,0.8c0,0.1,0,0.3,0,0.4c0,0.1,0,0.2,0,0.4H72.1z M75.8,35.3
			c0-0.1,0-0.2,0-0.2c0-0.1,0-0.1,0-0.2c0-0.2,0-0.4-0.1-0.6c-0.1-0.2-0.2-0.4-0.3-0.5c-0.1-0.1-0.3-0.3-0.5-0.4
			c-0.2-0.1-0.4-0.1-0.7-0.1c-0.3,0-0.6,0.1-0.8,0.2c-0.2,0.1-0.4,0.3-0.6,0.5c-0.2,0.2-0.3,0.4-0.4,0.7c-0.1,0.2-0.2,0.5-0.3,0.8
			H75.8z"/>
		<path class="st4" d="M78.1,33h0.4l-0.2,1.1h0c0.2-0.4,0.5-0.7,0.8-0.9c0.3-0.2,0.7-0.3,1.2-0.3c0.2,0,0.4,0,0.5,0.1
			c0.2,0.1,0.3,0.2,0.5,0.3c0.1,0.1,0.2,0.3,0.3,0.4c0.1,0.2,0.1,0.4,0.1,0.6c0,0.1,0,0.1,0,0.2c0,0.1,0,0.2,0,0.3
			c0,0.1,0,0.2,0,0.3c0,0.1,0,0.2,0,0.2L81,38.1h-0.4l0.6-2.8c0,0,0-0.1,0-0.2c0-0.1,0-0.2,0-0.3c0-0.1,0-0.2,0-0.3
			c0-0.1,0-0.2,0-0.3c0-0.3-0.1-0.6-0.3-0.8c-0.2-0.2-0.5-0.3-0.9-0.3c-0.3,0-0.6,0.1-0.9,0.2c-0.3,0.2-0.5,0.3-0.7,0.6
			c-0.2,0.2-0.3,0.5-0.5,0.8c-0.1,0.3-0.2,0.6-0.3,0.9l-0.5,2.4h-0.4L78.1,33z"/>
		<path class="st4" d="M86.5,35.6c0,0.1,0,0.2,0,0.3c0,0.1,0,0.2,0,0.3c0,0.2,0,0.5,0.1,0.7c0.1,0.2,0.2,0.4,0.3,0.6
			c0.1,0.2,0.3,0.3,0.5,0.4c0.2,0.1,0.4,0.1,0.7,0.1c0.2,0,0.5,0,0.7-0.1c0.2-0.1,0.4-0.2,0.6-0.3c0.2-0.1,0.3-0.3,0.4-0.5
			c0.1-0.2,0.2-0.4,0.2-0.6h0.4c-0.1,0.3-0.2,0.5-0.3,0.7c-0.1,0.2-0.3,0.4-0.5,0.6c-0.2,0.2-0.4,0.3-0.7,0.4
			c-0.3,0.1-0.5,0.1-0.8,0.1c-0.3,0-0.6-0.1-0.8-0.2c-0.2-0.1-0.4-0.2-0.6-0.4c-0.2-0.2-0.3-0.4-0.4-0.6c-0.1-0.2-0.1-0.5-0.1-0.8
			c0-0.5,0.1-0.9,0.2-1.3c0.1-0.4,0.3-0.7,0.5-1c0.2-0.3,0.5-0.5,0.8-0.7c0.3-0.2,0.7-0.3,1.1-0.3c0.3,0,0.6,0,0.8,0.1
			c0.2,0.1,0.4,0.2,0.6,0.4c0.2,0.2,0.3,0.4,0.4,0.6c0.1,0.2,0.1,0.5,0.1,0.8c0,0.1,0,0.3,0,0.4c0,0.1,0,0.2,0,0.4H86.5z M90.2,35.3
			c0-0.1,0-0.2,0-0.2c0-0.1,0-0.1,0-0.2c0-0.2,0-0.4-0.1-0.6c-0.1-0.2-0.2-0.4-0.3-0.5c-0.1-0.1-0.3-0.3-0.5-0.4
			c-0.2-0.1-0.4-0.1-0.7-0.1c-0.3,0-0.6,0.1-0.8,0.2c-0.2,0.1-0.4,0.3-0.6,0.5c-0.2,0.2-0.3,0.4-0.4,0.7c-0.1,0.2-0.2,0.5-0.3,0.8
			H90.2z"/>
		<path class="st4" d="M93,31h0.4l-1.5,7h-0.4L93,31z"/>
		<path class="st4" d="M98,33h0.4l-0.2,1.1l0,0c0.1-0.2,0.2-0.3,0.3-0.5c0.1-0.1,0.3-0.3,0.4-0.4c0.2-0.1,0.3-0.2,0.5-0.3
			c0.2-0.1,0.4-0.1,0.6-0.1c0.4,0,0.7,0.1,0.9,0.3c0.2,0.2,0.3,0.5,0.3,0.9h0c0.2-0.4,0.4-0.7,0.7-0.9c0.3-0.2,0.7-0.4,1.1-0.4
			c0.2,0,0.3,0,0.5,0.1c0.2,0.1,0.3,0.1,0.4,0.2c0.1,0.1,0.2,0.2,0.3,0.4c0.1,0.1,0.1,0.3,0.1,0.5c0,0.2,0,0.3,0,0.5
			c0,0.2-0.1,0.3-0.1,0.5l-0.6,3h-0.4l0.6-3c0-0.1,0-0.2,0.1-0.4c0-0.2,0.1-0.3,0.1-0.5c0-0.2,0-0.3-0.1-0.5
			c-0.1-0.1-0.2-0.2-0.3-0.3s-0.2-0.1-0.4-0.2c-0.1,0-0.3,0-0.4,0c-0.2,0-0.4,0.1-0.6,0.2c-0.2,0.1-0.4,0.3-0.6,0.5
			c-0.2,0.2-0.3,0.4-0.4,0.6c-0.1,0.2-0.2,0.5-0.2,0.7l-0.6,2.9h-0.4l0.6-2.9c0-0.1,0.1-0.3,0.1-0.5c0-0.2,0-0.3,0-0.5
			c0-0.3-0.1-0.6-0.3-0.7c-0.2-0.2-0.4-0.3-0.7-0.3c-0.3,0-0.5,0.1-0.7,0.2c-0.2,0.2-0.4,0.3-0.6,0.6c-0.2,0.2-0.3,0.5-0.4,0.8
			c-0.1,0.3-0.2,0.5-0.3,0.8l-0.5,2.5h-0.4L98,33z"/>
		<path class="st4" d="M106.3,33h0.4l-1.1,5.1h-0.4L106.3,33z M106.7,31h0.4l-0.2,1h-0.4L106.7,31z"/>
		<path class="st4" d="M107.8,36.3c0,0,0,0.1,0,0.1c0,0,0,0.1,0,0.1c0,0.5,0.2,0.8,0.5,1c0.3,0.2,0.7,0.3,1.3,0.3
			c0.1,0,0.3,0,0.4-0.1c0.2,0,0.3-0.1,0.4-0.2c0.1-0.1,0.3-0.2,0.3-0.3c0.1-0.1,0.1-0.3,0.1-0.5c0-0.2-0.1-0.4-0.2-0.6
			c-0.1-0.1-0.3-0.3-0.5-0.4c-0.2-0.1-0.4-0.2-0.7-0.3c-0.2-0.1-0.5-0.2-0.7-0.3c-0.2-0.1-0.4-0.2-0.5-0.4c-0.1-0.2-0.2-0.4-0.2-0.7
			c0-0.2,0.1-0.4,0.2-0.6c0.1-0.2,0.2-0.3,0.4-0.4c0.2-0.1,0.4-0.2,0.6-0.2c0.2-0.1,0.4-0.1,0.6-0.1c0.2,0,0.5,0,0.7,0.1
			c0.2,0.1,0.4,0.1,0.6,0.2c0.2,0.1,0.3,0.2,0.4,0.4c0.1,0.2,0.1,0.3,0.1,0.5c0,0.1,0,0.1,0,0.2c0,0.1,0,0.1,0,0.2h-0.4
			c0-0.1,0-0.1,0-0.2c0-0.1,0-0.1,0-0.2c0-0.2,0-0.3-0.1-0.4c-0.1-0.1-0.2-0.2-0.3-0.3c-0.1-0.1-0.3-0.1-0.4-0.2
			c-0.2,0-0.3-0.1-0.5-0.1c-0.2,0-0.3,0-0.5,0c-0.2,0-0.3,0.1-0.5,0.2c-0.1,0.1-0.3,0.2-0.3,0.3c-0.1,0.1-0.1,0.3-0.1,0.5
			c0,0.2,0,0.3,0.1,0.4c0.1,0.1,0.2,0.2,0.3,0.3c0.1,0.1,0.3,0.2,0.4,0.2c0.2,0.1,0.3,0.1,0.5,0.2c0.2,0.1,0.3,0.1,0.5,0.2
			s0.3,0.2,0.4,0.3c0.1,0.1,0.2,0.2,0.3,0.4c0.1,0.1,0.1,0.3,0.1,0.5c0,0.2-0.1,0.5-0.2,0.7c-0.1,0.2-0.3,0.4-0.4,0.5
			c-0.2,0.1-0.4,0.2-0.6,0.3c-0.2,0.1-0.5,0.1-0.7,0.1c-0.3,0-0.5,0-0.8-0.1c-0.2-0.1-0.4-0.1-0.6-0.3c-0.2-0.1-0.3-0.3-0.4-0.5
			c-0.1-0.2-0.2-0.4-0.2-0.7v-0.2c0,0,0-0.1,0-0.1c0,0,0-0.1,0-0.1H107.8z"/>
		<path class="st4" d="M113.5,33h0.4l-0.2,1.1l0,0c0.1-0.2,0.2-0.3,0.3-0.5c0.1-0.1,0.3-0.3,0.4-0.4c0.2-0.1,0.3-0.2,0.5-0.3
			c0.2-0.1,0.4-0.1,0.6-0.1c0.4,0,0.7,0.1,0.9,0.3c0.2,0.2,0.3,0.5,0.3,0.9h0c0.2-0.4,0.4-0.7,0.7-0.9c0.3-0.2,0.7-0.4,1.1-0.4
			c0.2,0,0.3,0,0.5,0.1c0.2,0.1,0.3,0.1,0.4,0.2c0.1,0.1,0.2,0.2,0.3,0.4c0.1,0.1,0.1,0.3,0.1,0.5c0,0.2,0,0.3,0,0.5
			c0,0.2-0.1,0.3-0.1,0.5l-0.6,3h-0.4l0.6-3c0-0.1,0-0.2,0.1-0.4c0-0.2,0.1-0.3,0.1-0.5c0-0.2,0-0.3-0.1-0.5
			c-0.1-0.1-0.2-0.2-0.3-0.3s-0.2-0.1-0.4-0.2c-0.1,0-0.3,0-0.4,0c-0.2,0-0.4,0.1-0.6,0.2c-0.2,0.1-0.4,0.3-0.6,0.5
			c-0.2,0.2-0.3,0.4-0.4,0.6c-0.1,0.2-0.2,0.5-0.2,0.7l-0.6,2.9h-0.4l0.6-2.9c0-0.1,0.1-0.3,0.1-0.5c0-0.2,0-0.3,0-0.5
			c0-0.3-0.1-0.6-0.3-0.7c-0.2-0.2-0.4-0.3-0.7-0.3c-0.3,0-0.5,0.1-0.7,0.2c-0.2,0.2-0.4,0.3-0.6,0.6c-0.2,0.2-0.3,0.5-0.4,0.8
			c-0.1,0.3-0.2,0.5-0.3,0.8l-0.5,2.5h-0.4L113.5,33z"/>
		<path class="st4" d="M123.7,32.9c0.6,0,1.1,0.2,1.5,0.5c0.4,0.3,0.5,0.8,0.5,1.5c0,0.4-0.1,0.8-0.2,1.2c-0.1,0.4-0.3,0.7-0.5,1.1
			c-0.2,0.3-0.5,0.6-0.8,0.8c-0.3,0.2-0.7,0.3-1.2,0.3c-0.3,0-0.6-0.1-0.9-0.2c-0.3-0.1-0.5-0.2-0.6-0.4c-0.2-0.2-0.3-0.4-0.4-0.7
			c-0.1-0.3-0.1-0.5-0.1-0.9c0-0.4,0.1-0.8,0.2-1.1c0.1-0.4,0.3-0.7,0.5-1c0.2-0.3,0.5-0.5,0.9-0.7C122.9,33,123.3,32.9,123.7,32.9z
			 M123.8,33.2c-0.4,0-0.7,0.1-1,0.2c-0.3,0.2-0.6,0.4-0.8,0.7c-0.2,0.3-0.4,0.6-0.5,0.9c-0.1,0.3-0.2,0.7-0.2,1
			c0,0.3,0,0.5,0.1,0.7c0.1,0.2,0.2,0.4,0.3,0.6c0.1,0.2,0.3,0.3,0.5,0.4c0.2,0.1,0.5,0.1,0.7,0.1c0.4,0,0.7-0.1,1-0.3
			c0.3-0.2,0.5-0.4,0.7-0.7c0.2-0.3,0.3-0.6,0.4-1c0.1-0.4,0.1-0.7,0.1-1c0-0.5-0.1-0.9-0.4-1.2C124.7,33.4,124.3,33.2,123.8,33.2z"
			/>
		<path class="st4" d="M131.2,31h0.4l-1.5,7h-0.4L131.2,31z"/>
		<path class="st4" d="M135.7,38.1h-0.4l0.2-1.1l0,0c-0.1,0.2-0.2,0.4-0.4,0.5c-0.1,0.1-0.3,0.3-0.4,0.4c-0.2,0.1-0.3,0.2-0.5,0.2
			c-0.2,0.1-0.4,0.1-0.7,0.1c-0.2,0-0.4,0-0.5-0.1c-0.2-0.1-0.3-0.2-0.5-0.3c-0.1-0.1-0.2-0.3-0.3-0.4c-0.1-0.2-0.1-0.4-0.1-0.6
			c0-0.1,0-0.1,0-0.2c0-0.1,0-0.2,0-0.3c0-0.1,0-0.2,0-0.3c0-0.1,0-0.2,0-0.2l0.6-2.8h0.4l-0.6,2.8c0,0,0,0.1,0,0.2
			c0,0.1,0,0.2,0,0.3c0,0.1,0,0.2,0,0.3c0,0.1,0,0.2,0,0.3c0,0.3,0.1,0.6,0.3,0.8c0.2,0.2,0.5,0.3,0.9,0.3c0.3,0,0.6-0.1,0.8-0.2
			c0.2-0.2,0.5-0.3,0.7-0.6c0.2-0.2,0.3-0.5,0.5-0.8c0.1-0.3,0.2-0.6,0.3-0.9l0.5-2.4h0.4L135.7,38.1z"/>
		<path class="st4" d="M137.8,38.4c0,0.4,0.1,0.7,0.4,0.9c0.3,0.2,0.6,0.3,1,0.3c0.4,0,0.7,0,0.9-0.1c0.2-0.1,0.4-0.2,0.6-0.4
			c0.2-0.2,0.3-0.4,0.4-0.6c0.1-0.2,0.2-0.5,0.2-0.7l0.2-1h0c-0.2,0.3-0.4,0.6-0.7,0.8c-0.3,0.2-0.6,0.3-1,0.3c-0.3,0-0.6,0-0.8-0.1
			c-0.2-0.1-0.4-0.2-0.6-0.4c-0.2-0.2-0.3-0.4-0.3-0.7c-0.1-0.2-0.1-0.5-0.1-0.8c0-0.4,0.1-0.7,0.2-1.1c0.1-0.4,0.3-0.7,0.5-0.9
			c0.2-0.3,0.5-0.5,0.8-0.7c0.3-0.2,0.7-0.3,1.1-0.3c0.2,0,0.4,0,0.6,0.1c0.2,0.1,0.4,0.2,0.5,0.3c0.2,0.1,0.3,0.3,0.4,0.4
			c0.1,0.2,0.1,0.4,0.1,0.6h0l0.3-1.3h0.4l-1,4.8c-0.1,0.3-0.2,0.7-0.3,0.9c-0.1,0.3-0.3,0.5-0.5,0.7c-0.2,0.2-0.4,0.3-0.7,0.4
			c-0.3,0.1-0.6,0.1-1,0.1c-0.2,0-0.5,0-0.7-0.1c-0.2-0.1-0.4-0.2-0.6-0.3c-0.2-0.1-0.3-0.3-0.4-0.5c-0.1-0.2-0.1-0.4-0.1-0.7H137.8
			z M140.3,33.2c-0.3,0-0.6,0.1-0.9,0.2c-0.3,0.2-0.5,0.4-0.7,0.6c-0.2,0.2-0.3,0.5-0.4,0.8c-0.1,0.3-0.1,0.6-0.1,0.9
			c0,0.6,0.1,1,0.4,1.3c0.2,0.3,0.7,0.5,1.2,0.5c0.3,0,0.6-0.1,0.9-0.3c0.3-0.2,0.5-0.4,0.6-0.7c0.2-0.3,0.3-0.6,0.4-0.9
			c0.1-0.3,0.1-0.6,0.1-0.9c0-0.3-0.1-0.6-0.2-0.8c-0.1-0.2-0.2-0.4-0.4-0.5c-0.2-0.1-0.3-0.2-0.5-0.3
			C140.6,33.2,140.5,33.2,140.3,33.2z"/>
		<path class="st4" d="M143.9,34.5c0.1-0.6,0.4-1,0.8-1.2c0.4-0.2,0.8-0.4,1.4-0.4c0.1,0,0.3,0,0.5,0c0.2,0,0.4,0.1,0.5,0.2
			c0.2,0.1,0.3,0.2,0.4,0.4c0.1,0.2,0.2,0.4,0.2,0.6c0,0.1,0,0.3,0,0.4c0,0.2-0.1,0.4-0.1,0.5c0,0.2-0.1,0.3-0.1,0.5
			s-0.1,0.2-0.1,0.3c0,0.1-0.1,0.3-0.1,0.4c0,0.2-0.1,0.3-0.1,0.5c0,0.2-0.1,0.3-0.1,0.4c0,0.1,0,0.2,0,0.3c0,0.1,0,0.2,0.1,0.2
			c0,0.1,0.1,0.1,0.2,0.1c0.1,0,0.1,0,0.2,0c0.1,0,0.1,0,0.2,0l-0.1,0.3c-0.1,0-0.1,0-0.2,0c-0.1,0-0.1,0-0.2,0
			c-0.2,0-0.3-0.1-0.4-0.2c-0.1-0.1-0.1-0.2-0.1-0.3c0-0.1,0-0.1,0-0.2c0-0.1,0-0.2,0-0.2h0c-0.1,0.2-0.2,0.3-0.4,0.5
			c-0.2,0.1-0.3,0.2-0.5,0.3c-0.2,0.1-0.3,0.1-0.5,0.2c-0.2,0-0.4,0.1-0.5,0.1c-0.2,0-0.4,0-0.6-0.1c-0.2,0-0.4-0.1-0.5-0.2
			c-0.1-0.1-0.3-0.2-0.3-0.4c-0.1-0.2-0.1-0.4-0.1-0.6c0-0.3,0.1-0.6,0.2-0.8c0.1-0.2,0.3-0.4,0.5-0.5c0.2-0.1,0.4-0.2,0.7-0.2
			c0.3,0,0.5-0.1,0.8-0.1c0.4,0,0.7,0,0.9-0.1c0.2,0,0.4-0.1,0.6-0.2c0.1-0.1,0.2-0.2,0.3-0.3c0.1-0.1,0.1-0.3,0.1-0.5
			c0-0.3-0.1-0.6-0.3-0.8c-0.2-0.2-0.5-0.3-1-0.3c-0.5,0-0.8,0.1-1.1,0.3c-0.3,0.2-0.5,0.5-0.6,1H143.9z M147.1,35.2L147.1,35.2
			c-0.1,0.1-0.2,0.1-0.3,0.2c-0.1,0-0.3,0.1-0.4,0.1c-0.2,0-0.3,0.1-0.5,0.1c-0.2,0-0.3,0-0.4,0c-0.2,0-0.5,0-0.7,0
			c-0.2,0-0.4,0.1-0.6,0.2c-0.2,0.1-0.3,0.2-0.4,0.4c-0.1,0.2-0.2,0.4-0.2,0.7c0,0.2,0,0.4,0.1,0.5c0.1,0.1,0.2,0.2,0.3,0.3
			c0.1,0.1,0.3,0.1,0.4,0.2c0.2,0,0.3,0.1,0.5,0.1c0.3,0,0.6-0.1,0.8-0.2c0.2-0.1,0.4-0.2,0.6-0.4c0.2-0.2,0.3-0.4,0.4-0.6
			c0.1-0.2,0.2-0.5,0.3-0.7L147.1,35.2z"/>
		<path class="st4" d="M149.7,33h0.4l-0.3,1.2h0c0.2-0.4,0.4-0.7,0.8-1c0.3-0.3,0.7-0.4,1.2-0.4c0.1,0,0.1,0,0.2,0
			c0.1,0,0.1,0,0.2,0l-0.1,0.4c-0.1,0-0.2,0-0.3,0c-0.4,0-0.7,0.1-0.9,0.3c-0.3,0.2-0.5,0.4-0.6,0.7c-0.2,0.3-0.3,0.6-0.4,0.9
			c-0.1,0.3-0.2,0.6-0.2,0.9l-0.4,2h-0.4L149.7,33z"/>
	</g>
</g>
</svg>
