<?xml version="1.0" encoding="utf-8"?>
<!-- Generator: Adobe Illustrator 23.0.1, SVG Export Plug-In . SVG Version: 6.00 Build 0)  -->
<svg version="1.1" id="Layer_1" xmlns="http://www.w3.org/2000/svg" xmlns:xlink="http://www.w3.org/1999/xlink" x="0px" y="0px"
	 viewBox="0 0 80.9 104.6" style="enable-background:new 0 0 80.9 104.6;" xml:space="preserve">
<style type="text/css">
	.st0{fill:url(#SVGID_1_);}
	.st1{fill:url(#SVGID_2_);}
	.st2{fill:url(#SVGID_3_);}
	.st3{fill:url(#SVGID_4_);}
	.st4{fill:url(#SVGID_5_);}
	.st5{fill:url(#SVGID_6_);}
	.st6{fill:url(#SVGID_7_);}
	.st7{fill:url(#SVGID_8_);}
	.st8{fill:url(#SVGID_9_);}
	.st9{fill:url(#SVGID_10_);}
</style>
<title>Artboard 1</title>
<g>
	<linearGradient id="SVGID_1_" gradientUnits="userSpaceOnUse" x1="-9.3417" y1="17.5362" x2="45.3273" y2="90.0845">
		<stop  offset="0" style="stop-color:#BC2A1B"/>
		<stop  offset="0.25" style="stop-color:#E53523"/>
		<stop  offset="0.5706" style="stop-color:#E7523E"/>
		<stop  offset="0.7346" style="stop-color:#F18024"/>
		<stop  offset="0.8335" style="stop-color:#F18024"/>
		<stop  offset="1" style="stop-color:#E7523E"/>
	</linearGradient>
	<path class="st0" d="M27.1,79l7.4,13.8c5.9-3.6,11.6-7.4,17.2-11.4l-23.2-4.3C27.1,76.9,26.5,77.7,27.1,79z"/>
	<linearGradient id="SVGID_2_" gradientUnits="userSpaceOnUse" x1="-28.6064" y1="34.9973" x2="23.8078" y2="104.5533">
		<stop  offset="0" style="stop-color:#BC2A1B"/>
		<stop  offset="0.25" style="stop-color:#E53523"/>
		<stop  offset="0.5706" style="stop-color:#E7523E"/>
		<stop  offset="0.7346" style="stop-color:#F18024"/>
		<stop  offset="0.8335" style="stop-color:#F18024"/>
		<stop  offset="1" style="stop-color:#E7523E"/>
	</linearGradient>
	<path class="st1" d="M18.9,75.4c-0.3-0.1-1.4,0.6-2.6,1.4l-16.1,12c-1.6,12.2,8.5,19.1,22.1,11.1c2.6-1.4,5.2-2.9,7.7-4.4
		l-9.4-17.7C20,76.5,19.2,75.4,18.9,75.4z"/>
	<linearGradient id="SVGID_3_" gradientUnits="userSpaceOnUse" x1="28.8635" y1="-2.5746" x2="80.0403" y2="65.3393">
		<stop  offset="0" style="stop-color:#BC2A1B"/>
		<stop  offset="0.25" style="stop-color:#E53523"/>
		<stop  offset="0.5706" style="stop-color:#E7523E"/>
		<stop  offset="0.7346" style="stop-color:#F18024"/>
		<stop  offset="0.8335" style="stop-color:#F18024"/>
		<stop  offset="1" style="stop-color:#E7523E"/>
	</linearGradient>
	<path class="st2" d="M64.9,40.7l-9.5,7c-1.1,0.8-1.3,2.4-0.2,3.4l15.9,15.9c10-7.4,11.3-17.5,4.8-25.9l-6.4-1.4
		C68.1,39.4,66.1,39.9,64.9,40.7z"/>
	<linearGradient id="SVGID_4_" gradientUnits="userSpaceOnUse" x1="3.4736" y1="13.8169" x2="55.5018" y2="82.8607">
		<stop  offset="0" style="stop-color:#BC2A1B"/>
		<stop  offset="0.25" style="stop-color:#E53523"/>
		<stop  offset="0.5706" style="stop-color:#E7523E"/>
		<stop  offset="0.7346" style="stop-color:#F18024"/>
		<stop  offset="0.8335" style="stop-color:#F18024"/>
		<stop  offset="1" style="stop-color:#E7523E"/>
	</linearGradient>
	<path class="st3" d="M51,54.3c-1-1-2.8-1.1-3.9-0.3L26.2,69.5c-1.1,0.8-0.9,1.8,0.5,2l30.9,5.7c3.2-2.3,6.3-4.7,9.4-7.1L51,54.3z"
		/>
	<linearGradient id="SVGID_5_" gradientUnits="userSpaceOnUse" x1="21.3658" y1="-9.710155e-02" x2="74.4366" y2="70.3302">
		<stop  offset="0" style="stop-color:#BC2A1B"/>
		<stop  offset="0.25" style="stop-color:#E53523"/>
		<stop  offset="0.5706" style="stop-color:#E7523E"/>
		<stop  offset="0.7346" style="stop-color:#F18024"/>
		<stop  offset="0.8335" style="stop-color:#F18024"/>
		<stop  offset="1" style="stop-color:#E7523E"/>
	</linearGradient>
	<path class="st4" d="M57.8,37.2l-18.5-4c-1.4-0.3-1.7,0.3-0.7,1.3l9.3,9.3c1,1,2.8,1.1,3.9,0.3l6.4-4.8
		C59.4,38.4,59.1,37.5,57.8,37.2z"/>
	<linearGradient id="SVGID_6_" gradientUnits="userSpaceOnUse" x1="4.1554" y1="12.9046" x2="56.6796" y2="82.6066">
		<stop  offset="0" style="stop-color:#BC2A1B"/>
		<stop  offset="0.25" style="stop-color:#E53523"/>
		<stop  offset="0.5706" style="stop-color:#E7523E"/>
		<stop  offset="0.7346" style="stop-color:#F18024"/>
		<stop  offset="0.8335" style="stop-color:#F18024"/>
		<stop  offset="1" style="stop-color:#E7523E"/>
	</linearGradient>
	<path class="st5" d="M21.3,24.6L1.9,5.1c-2.4,4-2.5,10,0.6,16.8l18.1,3.9C22,26.2,22.4,25.6,21.3,24.6z"/>
	<linearGradient id="SVGID_7_" gradientUnits="userSpaceOnUse" x1="-17.6128" y1="28.1108" x2="34.0301" y2="96.6433">
		<stop  offset="0" style="stop-color:#BC2A1B"/>
		<stop  offset="0.25" style="stop-color:#E53523"/>
		<stop  offset="0.5706" style="stop-color:#E7523E"/>
		<stop  offset="0.7346" style="stop-color:#F18024"/>
		<stop  offset="0.8335" style="stop-color:#F18024"/>
		<stop  offset="1" style="stop-color:#E7523E"/>
	</linearGradient>
	<path class="st6" d="M15.1,67.4L6.6,51.4c0,5.4-0.4,10.9-1.1,16.2l8.3,1.5C15.2,69.4,15.8,68.6,15.1,67.4z"/>
	<linearGradient id="SVGID_8_" gradientUnits="userSpaceOnUse" x1="22.7274" y1="-0.5489" x2="76.2245" y2="70.4441">
		<stop  offset="0" style="stop-color:#BC2A1B"/>
		<stop  offset="0.25" style="stop-color:#E53523"/>
		<stop  offset="0.5706" style="stop-color:#E7523E"/>
		<stop  offset="0.7346" style="stop-color:#F18024"/>
		<stop  offset="0.8335" style="stop-color:#F18024"/>
		<stop  offset="1" style="stop-color:#E7523E"/>
	</linearGradient>
	<path class="st7" d="M35,29l26.2,5.7c1.4,0.3,3.5-0.1,4.6-1l0.9-0.7C52.4,22.1,38.2,12.2,22.4,3.5c-6.8-4-12.8-4.2-16.8-2
		l25.1,25.1C31.7,27.6,33.6,28.7,35,29z"/>
	<linearGradient id="SVGID_9_" gradientUnits="userSpaceOnUse" x1="-25.1075" y1="35.4704" x2="24.5056" y2="101.3092">
		<stop  offset="0" style="stop-color:#BC2A1B"/>
		<stop  offset="0.25" style="stop-color:#E53523"/>
		<stop  offset="0.5706" style="stop-color:#E7523E"/>
		<stop  offset="0.7346" style="stop-color:#F18024"/>
		<stop  offset="0.8335" style="stop-color:#F18024"/>
		<stop  offset="1" style="stop-color:#E7523E"/>
	</linearGradient>
	<path class="st8" d="M9,73.5l-4.3-0.8c-0.5,2.6-1.1,5.2-1.8,7.8l6.6-4.9C10.6,74.7,10.4,73.8,9,73.5z"/>
	<linearGradient id="SVGID_10_" gradientUnits="userSpaceOnUse" x1="0.7071" y1="14.8065" x2="52.562" y2="83.6202">
		<stop  offset="0" style="stop-color:#BC2A1B"/>
		<stop  offset="0.25" style="stop-color:#E53523"/>
		<stop  offset="0.5706" style="stop-color:#E7523E"/>
		<stop  offset="0.7346" style="stop-color:#F18024"/>
		<stop  offset="0.8335" style="stop-color:#F18024"/>
		<stop  offset="1" style="stop-color:#E7523E"/>
	</linearGradient>
	<path class="st9" d="M19.6,64.8c0.7,1.3,2.1,1.6,3.3,0.7l20.5-15.3c1.1-0.8,1.3-2.4,0.2-3.4L29.2,32.4c-1-1-3-2.1-4.4-2.4L3.5,25.4
		c1.1,4.4,1.9,9,2.4,13.6L19.6,64.8z"/>
</g>
</svg>
