<svg xmlns="http://www.w3.org/2000/svg" viewBox="0 0 152.35 40"><defs><style>.cls-1{fill:#47b4fa;}.cls-1,.cls-2,.cls-3{fill-rule:evenodd;}.cls-2,.cls-5{fill:#5be4e4;}.cls-3{fill:#0395c7;}.cls-4{fill:#fff;}</style></defs><title>Artboard 1</title><g id="logo"><path class="cls-1" d="M20.35,23.41H11.69A11.69,11.69,0,0,1,0,11.72v0A11.68,11.68,0,0,1,11.69,0H25.46A11.69,11.69,0,0,1,37.15,11.69v0A11.71,11.71,0,0,1,25.56,23.41h0l.69,4.83-5.92-4.83Z"/><path class="cls-2" d="M16.37,16H29.59A11.68,11.68,0,0,1,41.28,27.66v0A11.69,11.69,0,0,1,29.59,39.38H11.69A11.69,11.69,0,0,1,0,27.69v0A11.68,11.68,0,0,1,11.16,16h0l-.7-4.83L16.37,16Z"/><path class="cls-3" d="M3.14,19.69l.28-.3A11.68,11.68,0,0,1,11.16,16h0l-.7-4.83L16.37,16H29.59a11.71,11.71,0,0,1,6,1.63A11.48,11.48,0,0,1,33.72,20a11.7,11.7,0,0,1-8.16,3.43h0l.69,4.83-5.92-4.83H11.69A11.69,11.69,0,0,1,3.42,20l-.28-.29Z"/><path class="cls-4" d="M58.42,1.61a15.53,15.53,0,0,1,3.33.33A7.13,7.13,0,0,1,64.32,3,5,5,0,0,1,66,5a7.33,7.33,0,0,1,.59,3.1,5.92,5.92,0,0,1-.87,3.32,6.44,6.44,0,0,1-2.6,2.18,6.14,6.14,0,0,1,3.52,2.45,7.45,7.45,0,0,1,1.17,4.23A7.44,7.44,0,0,1,67,23.77a6.69,6.69,0,0,1-2,2.38,8.82,8.82,0,0,1-2.9,1.37,12.86,12.86,0,0,1-3.34.44H46.41V1.61Zm-.71,10.66a3.93,3.93,0,0,0,2.46-.73,2.83,2.83,0,0,0,1-2.4,3.23,3.23,0,0,0-.32-1.52A2.46,2.46,0,0,0,60,6.7a3.69,3.69,0,0,0-1.23-.46,7.67,7.67,0,0,0-1.45-.13H52v6.16ZM58,23.46a7.26,7.26,0,0,0,1.57-.17,3.72,3.72,0,0,0,1.32-.55,2.85,2.85,0,0,0,.92-1,3.84,3.84,0,0,0,.33-1.7,3.5,3.5,0,0,0-1.1-2.9,4.62,4.62,0,0,0-2.93-.87H52v7.24Z"/><path class="cls-4" d="M73,8.88v3.54h.08a6.3,6.3,0,0,1,1-1.64,6.79,6.79,0,0,1,1.39-1.29,6.57,6.57,0,0,1,1.68-.83A5.84,5.84,0,0,1,79,8.36a3.59,3.59,0,0,1,1.11.19v4.87c-.24-.05-.52-.09-.86-.13a8,8,0,0,0-1-.06,5.25,5.25,0,0,0-2.36.48A4.25,4.25,0,0,0,74.34,15,5.5,5.5,0,0,0,73.5,17a11.33,11.33,0,0,0-.25,2.4V28H68.18V8.88Z"/><path class="cls-4" d="M80.44,14.75a6.31,6.31,0,0,1,.89-3.07,6.11,6.11,0,0,1,2-1.95,8.58,8.58,0,0,1,2.74-1.05,15,15,0,0,1,3.05-.32A19.56,19.56,0,0,1,92,8.57a8.45,8.45,0,0,1,2.61.79A5.17,5.17,0,0,1,96.48,11a4.63,4.63,0,0,1,.76,2.79v9.93a19.67,19.67,0,0,0,.14,2.47,4.42,4.42,0,0,0,.5,1.77H92.73c-.09-.3-.17-.6-.23-.9s-.1-.63-.13-.95a6.47,6.47,0,0,1-2.85,1.81,11,11,0,0,1-3.36.52,8.83,8.83,0,0,1-2.47-.33,5.53,5.53,0,0,1-2-1,4.68,4.68,0,0,1-1.34-1.77,6.16,6.16,0,0,1-.48-2.54,5.7,5.7,0,0,1,.55-2.68,4.81,4.81,0,0,1,1.43-1.68,6.25,6.25,0,0,1,2-.94,22.45,22.45,0,0,1,2.27-.5c.76-.12,1.51-.22,2.25-.29a13.58,13.58,0,0,0,2-.34,3.38,3.38,0,0,0,1.36-.64,1.47,1.47,0,0,0,.46-1.24,2.82,2.82,0,0,0-.27-1.34,1.92,1.92,0,0,0-.71-.78,2.86,2.86,0,0,0-1-.37,8.43,8.43,0,0,0-1.27-.09,3.8,3.8,0,0,0-2.36.66,3,3,0,0,0-1,2.22Zm11.72,3.87a2.16,2.16,0,0,1-.8.46,7.89,7.89,0,0,1-1,.28c-.37.07-.76.14-1.16.19s-.81.11-1.22.18a8.77,8.77,0,0,0-1.12.29,3.55,3.55,0,0,0-1,.5,2.46,2.46,0,0,0-.66.8,2.56,2.56,0,0,0-.25,1.21,2.52,2.52,0,0,0,.25,1.19,1.9,1.9,0,0,0,.68.75,2.68,2.68,0,0,0,1,.39,6.56,6.56,0,0,0,1.18.11,4.29,4.29,0,0,0,2.32-.52,3.34,3.34,0,0,0,1.22-1.23,4.11,4.11,0,0,0,.48-1.46,10.3,10.3,0,0,0,.09-1.18Z"/><path class="cls-4" d="M103.13,8.88v2.66h.11a5.87,5.87,0,0,1,2.5-2.42,7,7,0,0,1,3.15-.76,8.42,8.42,0,0,1,3.34.57,5.09,5.09,0,0,1,2,1.59A6.38,6.38,0,0,1,115.34,13a16.13,16.13,0,0,1,.3,3.23V28h-5.07V17.18a6.81,6.81,0,0,0-.72-3.52,2.73,2.73,0,0,0-2.54-1.16,3.46,3.46,0,0,0-3,1.27,7.25,7.25,0,0,0-.93,4.19V28H98.31V8.88Z"/><path class="cls-4" d="M125.47,12.31a3.5,3.5,0,0,0-2,.57,4.65,4.65,0,0,0-1.34,1.48,6.58,6.58,0,0,0-.73,2,11.47,11.47,0,0,0-.22,2.16,11,11,0,0,0,.22,2.11,6.25,6.25,0,0,0,.7,1.93,4,4,0,0,0,1.3,1.42,3.51,3.51,0,0,0,2,.56,3.67,3.67,0,0,0,2.81-1.05,5.16,5.16,0,0,0,1.23-2.83h4.9a8.78,8.78,0,0,1-2.86,5.8,9,9,0,0,1-6,2,9.87,9.87,0,0,1-3.81-.72,8.5,8.5,0,0,1-3-2,9.17,9.17,0,0,1-1.89-3.08,11.11,11.11,0,0,1-.68-3.93,13,13,0,0,1,.63-4.12,9.16,9.16,0,0,1,1.84-3.28,8.22,8.22,0,0,1,3-2.16,9.76,9.76,0,0,1,4-.78,11.07,11.07,0,0,1,3.16.45,8.18,8.18,0,0,1,2.71,1.34,7.28,7.28,0,0,1,2,2.25,7.38,7.38,0,0,1,.86,3.2h-5A3.44,3.44,0,0,0,125.47,12.31Z"/><path class="cls-4" d="M140.09,1.61v9.93h.1a6,6,0,0,1,2.47-2.42,6.43,6.43,0,0,1,2.93-.76,8.39,8.39,0,0,1,3.34.57A5.12,5.12,0,0,1,151,10.52,6.23,6.23,0,0,1,152,13a16.1,16.1,0,0,1,.31,3.23V28h-5.08V17.18a6.92,6.92,0,0,0-.71-3.52A2.74,2.74,0,0,0,144,12.5a3.46,3.46,0,0,0-3,1.27,7.25,7.25,0,0,0-.93,4.19V28H135V1.61Z"/><path class="cls-5" d="M46.55,31.41l.09-.38H52l-.08.38H49.51l-1.4,6.66h-.44l1.41-6.66Z"/><path class="cls-5" d="M53.58,32.88a2,2,0,0,1,1.48.53,2,2,0,0,1,.53,1.47,4.06,4.06,0,0,1-.18,1.17,3.26,3.26,0,0,1-.51,1.06,2.76,2.76,0,0,1-.85.78,2.23,2.23,0,0,1-1.16.3A2.31,2.31,0,0,1,52,38a1.65,1.65,0,0,1-.63-.43,1.9,1.9,0,0,1-.37-.67,2.94,2.94,0,0,1-.13-.87A3.9,3.9,0,0,1,51,34.91a3.55,3.55,0,0,1,.54-1,2.73,2.73,0,0,1,.86-.72A2.3,2.3,0,0,1,53.58,32.88Zm.08.33a2,2,0,0,0-1,.24,2.42,2.42,0,0,0-.76.66,2.94,2.94,0,0,0-.48.91,3.23,3.23,0,0,0-.16,1,2.71,2.71,0,0,0,.09.71,1.6,1.6,0,0,0,.3.58,1.36,1.36,0,0,0,.51.4,1.89,1.89,0,0,0,.75.14,1.86,1.86,0,0,0,1-.28,2.44,2.44,0,0,0,.72-.71,3.23,3.23,0,0,0,.44-1,3.83,3.83,0,0,0,.15-1,1.85,1.85,0,0,0-.37-1.2A1.49,1.49,0,0,0,53.66,33.21Z"/><path class="cls-5" d="M62.1,31l-1.5,7h-.37l.26-1.13,0,0a2.42,2.42,0,0,1-.76.93,2,2,0,0,1-1.16.34,2.15,2.15,0,0,1-.83-.16,1.77,1.77,0,0,1-.6-.43,1.92,1.92,0,0,1-.36-.64,2.37,2.37,0,0,1-.12-.76A4.36,4.36,0,0,1,56.81,35,3.67,3.67,0,0,1,57.33,34a3.09,3.09,0,0,1,.87-.78,2.39,2.39,0,0,1,1.21-.3,1.71,1.71,0,0,1,1.1.36,1.4,1.4,0,0,1,.52,1h0L61.73,31Zm-3.47,6.83a1.55,1.55,0,0,0,1-.31,2.76,2.76,0,0,0,.7-.78,4.45,4.45,0,0,0,.42-1,4.38,4.38,0,0,0,.14-1,1.49,1.49,0,0,0-.1-.55,1.42,1.42,0,0,0-.27-.48,1.2,1.2,0,0,0-.43-.34,1.28,1.28,0,0,0-.59-.13,2,2,0,0,0-1.06.28,2.53,2.53,0,0,0-.76.7,3.07,3.07,0,0,0-.47.94,3.11,3.11,0,0,0-.09,1.64,1.46,1.46,0,0,0,.25.55,1.21,1.21,0,0,0,.5.39A1.81,1.81,0,0,0,58.63,37.86Z"/><path class="cls-5" d="M65.34,32.88a2,2,0,0,1,1.48.53,2,2,0,0,1,.52,1.47,4,4,0,0,1-.17,1.17,3.47,3.47,0,0,1-.51,1.06,2.76,2.76,0,0,1-.85.78,2.26,2.26,0,0,1-1.17.3,2.23,2.23,0,0,1-.9-.16,1.65,1.65,0,0,1-.63-.43,1.75,1.75,0,0,1-.37-.67,2.65,2.65,0,0,1-.13-.87,3.9,3.9,0,0,1,.19-1.15,3.12,3.12,0,0,1,.54-1,2.81,2.81,0,0,1,.85-.72A2.34,2.34,0,0,1,65.34,32.88Zm.08.33a1.94,1.94,0,0,0-1,.24,2.46,2.46,0,0,0-.77.66,3.14,3.14,0,0,0-.47.91A3.23,3.23,0,0,0,63,36a2.71,2.71,0,0,0,.09.71,1.46,1.46,0,0,0,.3.58,1.36,1.36,0,0,0,.51.4,1.84,1.84,0,0,0,.74.14,1.82,1.82,0,0,0,1-.28,2.36,2.36,0,0,0,.73-.71,3.23,3.23,0,0,0,.44-1,3.83,3.83,0,0,0,.15-1,1.85,1.85,0,0,0-.38-1.2A1.48,1.48,0,0,0,65.42,33.21Z"/><path class="cls-5" d="M72.05,35.59l0,.27a2.46,2.46,0,0,0,0,.28,2.08,2.08,0,0,0,.11.66,2,2,0,0,0,.31.55,1.46,1.46,0,0,0,.51.37,1.51,1.51,0,0,0,.68.14,2,2,0,0,0,.68-.12,2,2,0,0,0,.57-.33,1.83,1.83,0,0,0,.42-.46,1.58,1.58,0,0,0,.24-.57h.38a2.53,2.53,0,0,1-.32.73,2.28,2.28,0,0,1-.5.57,2.23,2.23,0,0,1-.68.37,2.45,2.45,0,0,1-.83.14,2.26,2.26,0,0,1-.85-.16,1.77,1.77,0,0,1-.6-.43,2.08,2.08,0,0,1-.37-.65,2.37,2.37,0,0,1-.12-.76,4.19,4.19,0,0,1,.19-1.31,3.15,3.15,0,0,1,.53-1.05,2.28,2.28,0,0,1,.85-.69,2.43,2.43,0,0,1,1.12-.26,2,2,0,0,1,.79.15,1.67,1.67,0,0,1,.94,1,2.45,2.45,0,0,1,.12.78,2.42,2.42,0,0,1,0,.38c0,.12,0,.24-.05.37Zm3.7-.33c0-.09,0-.16,0-.23a1.23,1.23,0,0,0,0-.19,2.06,2.06,0,0,0-.09-.62,1.55,1.55,0,0,0-.29-.52,1.27,1.27,0,0,0-.48-.36,1.67,1.67,0,0,0-.69-.13,1.91,1.91,0,0,0-.8.17,2,2,0,0,0-.63.45,2.81,2.81,0,0,0-.44.66,3.35,3.35,0,0,0-.27.77Z"/><path class="cls-5" d="M78.11,33h.37l-.25,1.11h0a2.83,2.83,0,0,1,.85-.9,2.16,2.16,0,0,1,1.2-.33,1.68,1.68,0,0,1,.55.1,1.33,1.33,0,0,1,.46.27,1.44,1.44,0,0,1,.31.45,1.37,1.37,0,0,1,.12.58,2,2,0,0,1,0,.23c0,.09,0,.19,0,.29s0,.19,0,.28,0,.16,0,.22L81,38.07H80.6l.62-2.76c0-.05,0-.11,0-.2a1.86,1.86,0,0,0,0-.27c0-.09,0-.19,0-.29s0-.18,0-.26a1.06,1.06,0,0,0-.31-.78,1.23,1.23,0,0,0-.89-.3,1.68,1.68,0,0,0-.86.23,2.42,2.42,0,0,0-.66.58,4.21,4.21,0,0,0-.47.8,5,5,0,0,0-.27.86l-.5,2.39H77Z"/><path class="cls-5" d="M86.5,35.59l0,.27a2.46,2.46,0,0,0,0,.28,2.08,2.08,0,0,0,.11.66,1.74,1.74,0,0,0,.31.55,1.42,1.42,0,0,0,.5.37,1.52,1.52,0,0,0,.69.14,1.85,1.85,0,0,0,.67-.12,1.94,1.94,0,0,0,.58-.33,2,2,0,0,0,.42-.46,1.58,1.58,0,0,0,.24-.57h.38a2.84,2.84,0,0,1-.32.73,2.28,2.28,0,0,1-.5.57,2.23,2.23,0,0,1-.68.37,2.45,2.45,0,0,1-.83.14,2.26,2.26,0,0,1-.85-.16,1.77,1.77,0,0,1-.6-.43A1.9,1.9,0,0,1,86.2,37a2.37,2.37,0,0,1-.12-.76,4.19,4.19,0,0,1,.19-1.31,3.15,3.15,0,0,1,.53-1.05,2.28,2.28,0,0,1,.85-.69,2.43,2.43,0,0,1,1.12-.26,2,2,0,0,1,.79.15,1.67,1.67,0,0,1,.94,1,2.45,2.45,0,0,1,.12.78,2.42,2.42,0,0,1,0,.38c0,.12,0,.24,0,.37Zm3.7-.33c0-.09,0-.16,0-.23a1.23,1.23,0,0,0,0-.19,1.79,1.79,0,0,0-.1-.62,1.38,1.38,0,0,0-.28-.52,1.27,1.27,0,0,0-.48-.36,1.67,1.67,0,0,0-.69-.13,1.88,1.88,0,0,0-.8.17,2,2,0,0,0-.63.45,2.54,2.54,0,0,0-.44.66,3.35,3.35,0,0,0-.27.77Z"/><path class="cls-5" d="M93,31h.37l-1.47,7h-.37Z"/><path class="cls-5" d="M97.94,33h.38l-.23,1.06,0,0a3,3,0,0,1,.32-.47,2.46,2.46,0,0,1,.41-.38,2.26,2.26,0,0,1,.49-.25,1.81,1.81,0,0,1,.58-.1,1.24,1.24,0,0,1,.92.34,1.3,1.3,0,0,1,.32.93h0a2.2,2.2,0,0,1,.73-.92,1.9,1.9,0,0,1,1.11-.35,1.7,1.7,0,0,1,.51.08,1.34,1.34,0,0,1,.44.24,1.15,1.15,0,0,1,.31.38,1.21,1.21,0,0,1,.11.52,2.38,2.38,0,0,1,0,.46c0,.16-.06.32-.1.5l-.64,3h-.37l.64-3c0-.09.05-.22.08-.39a2.22,2.22,0,0,0,.06-.51,1.08,1.08,0,0,0-.1-.46.94.94,0,0,0-.26-.3,1,1,0,0,0-.36-.16,1.86,1.86,0,0,0-.42,0,1.09,1.09,0,0,0-.61.19,2.46,2.46,0,0,0-.56.47,3.36,3.36,0,0,0-.42.64,2.75,2.75,0,0,0-.25.67l-.62,2.89H100l.62-2.89a2.56,2.56,0,0,0,.08-.46,4.6,4.6,0,0,0,0-.5.91.91,0,0,0-1-1,1.3,1.3,0,0,0-.74.23,3,3,0,0,0-.6.58,3.81,3.81,0,0,0-.43.76,3.7,3.7,0,0,0-.25.78l-.54,2.51h-.38Z"/><path class="cls-5" d="M106.24,33h.38l-1.06,5.07h-.37Zm.42-2H107l-.21,1h-.37Z"/><path class="cls-5" d="M107.75,36.34v.12a.49.49,0,0,0,0,.12,1.08,1.08,0,0,0,.46,1,2.38,2.38,0,0,0,1.26.28,1.48,1.48,0,0,0,.44-.07,1.35,1.35,0,0,0,.44-.2,1.37,1.37,0,0,0,.34-.34.86.86,0,0,0,.14-.47.79.79,0,0,0-.23-.58,1.64,1.64,0,0,0-.52-.35,5.84,5.84,0,0,0-.67-.26,3.12,3.12,0,0,1-.67-.27,1.5,1.5,0,0,1-.52-.41,1,1,0,0,1-.19-.66,1.2,1.2,0,0,1,.15-.61,1.33,1.33,0,0,1,.42-.43,2,2,0,0,1,.58-.25,2.74,2.74,0,0,1,.64-.08,2.41,2.41,0,0,1,.67.09,1.53,1.53,0,0,1,.55.24,1.21,1.21,0,0,1,.38.4,1.1,1.1,0,0,1,.14.55c0,.06,0,.11,0,.16s0,.13,0,.21h-.38c0-.06,0-.11,0-.17v-.15a.9.9,0,0,0-.11-.44,1,1,0,0,0-.29-.31,1.77,1.77,0,0,0-.44-.19,2.18,2.18,0,0,0-.52-.06,2.59,2.59,0,0,0-.47,0,1.41,1.41,0,0,0-.46.17,1,1,0,0,0-.35.31.8.8,0,0,0-.14.48.69.69,0,0,0,.12.41,1.06,1.06,0,0,0,.33.3,2.6,2.6,0,0,0,.44.23l.51.18a4.65,4.65,0,0,1,.52.2,1.66,1.66,0,0,1,.45.26,1.19,1.19,0,0,1,.31.36,1,1,0,0,1,.12.51,1.29,1.29,0,0,1-.16.66,1.52,1.52,0,0,1-.43.48,1.83,1.83,0,0,1-.6.28,2.35,2.35,0,0,1-.69.1,3.69,3.69,0,0,1-.76-.08,1.73,1.73,0,0,1-.62-.26,1.25,1.25,0,0,1-.41-.47,1.52,1.52,0,0,1-.15-.71v-.24a.34.34,0,0,1,0-.09Z"/><path class="cls-5" d="M113.48,33h.37l-.23,1.06,0,0a3.88,3.88,0,0,1,.32-.47,2.93,2.93,0,0,1,.41-.38,2.13,2.13,0,0,1,.5-.25,1.7,1.7,0,0,1,.57-.1,1.22,1.22,0,0,1,.92.34,1.3,1.3,0,0,1,.32.93h0a2.2,2.2,0,0,1,.73-.92,1.9,1.9,0,0,1,1.11-.35,1.7,1.7,0,0,1,.51.08,1.25,1.25,0,0,1,.44.24,1.15,1.15,0,0,1,.31.38,1.21,1.21,0,0,1,.11.52,2.38,2.38,0,0,1,0,.46c0,.16-.06.32-.1.5l-.64,3h-.37l.64-3c0-.09,0-.22.08-.39a2.22,2.22,0,0,0,.06-.51.88.88,0,0,0-.36-.76,1,1,0,0,0-.36-.16,1.86,1.86,0,0,0-.42,0,1.09,1.09,0,0,0-.61.19,2.22,2.22,0,0,0-.55.47,3.41,3.41,0,0,0-.43.64,2.75,2.75,0,0,0-.25.67L116,38.07h-.37l.62-2.89a3.93,3.93,0,0,0,.08-.46,4.6,4.6,0,0,0,0-.5,1,1,0,0,0-.27-.75,1,1,0,0,0-.72-.26,1.3,1.3,0,0,0-.74.23,3,3,0,0,0-.6.58,4.14,4.14,0,0,0-.68,1.54l-.54,2.51h-.38Z"/><path class="cls-5" d="M123.66,32.88a1.84,1.84,0,0,1,2,2,4.41,4.41,0,0,1-.17,1.17,3.49,3.49,0,0,1-.52,1.06,2.72,2.72,0,0,1-.84.78,2.26,2.26,0,0,1-1.17.3,2.23,2.23,0,0,1-.9-.16,1.51,1.51,0,0,1-.63-.43,1.77,1.77,0,0,1-.38-.67,3,3,0,0,1-.12-.87,3.6,3.6,0,0,1,.19-1.15,3.3,3.3,0,0,1,.53-1,2.85,2.85,0,0,1,.86-.72A2.31,2.31,0,0,1,123.66,32.88Zm.08.33a2,2,0,0,0-1,.24,2.42,2.42,0,0,0-.76.66,2.94,2.94,0,0,0-.48.91,3.55,3.55,0,0,0-.16,1,2.34,2.34,0,0,0,.1.71,1.58,1.58,0,0,0,.29.58,1.54,1.54,0,0,0,.51.4,1.89,1.89,0,0,0,.75.14,1.82,1.82,0,0,0,1-.28,2.6,2.6,0,0,0,.73-.71,3.5,3.5,0,0,0,.44-1,4.24,4.24,0,0,0,.14-1,1.85,1.85,0,0,0-.37-1.2A1.48,1.48,0,0,0,123.74,33.21Z"/><path class="cls-5" d="M131.21,31h.37l-1.47,7h-.37Z"/><path class="cls-5" d="M135.67,38.07h-.37l.23-1.07,0,0a3.49,3.49,0,0,1-.35.51,2.13,2.13,0,0,1-.42.38,1.7,1.7,0,0,1-.53.24,2.76,2.76,0,0,1-.68.08,1.4,1.4,0,0,1-.54-.1,1.24,1.24,0,0,1-.46-.27,1.39,1.39,0,0,1-.44-1c0-.06,0-.14,0-.23s0-.19,0-.29a2.74,2.74,0,0,1,0-.28c0-.08,0-.16,0-.22l.62-2.77h.38l-.62,2.76a1.43,1.43,0,0,0-.05.2c0,.08,0,.18,0,.28s0,.19,0,.29a2.26,2.26,0,0,0,0,.25,1,1,0,0,0,.31.78,1.22,1.22,0,0,0,.88.3,1.53,1.53,0,0,0,.82-.22,2.44,2.44,0,0,0,.65-.59,3.37,3.37,0,0,0,.47-.8,5,5,0,0,0,.27-.86l.5-2.39h.38Z"/><path class="cls-5" d="M137.8,38.42a1.16,1.16,0,0,0,.38.94,1.57,1.57,0,0,0,1,.32,2.33,2.33,0,0,0,.89-.15,1.49,1.49,0,0,0,.58-.39,1.75,1.75,0,0,0,.37-.58,5.19,5.19,0,0,0,.22-.73l.23-1h0a2.22,2.22,0,0,1-.74.78,2,2,0,0,1-1.05.27,2.16,2.16,0,0,1-.83-.15,1.45,1.45,0,0,1-.58-.42,1.77,1.77,0,0,1-.35-.65,3.11,3.11,0,0,1-.11-.84,3.56,3.56,0,0,1,.17-1.06,3.09,3.09,0,0,1,.48-.94,2.43,2.43,0,0,1,.78-.68,2.22,2.22,0,0,1,1.06-.26,1.91,1.91,0,0,1,.64.11,1.72,1.72,0,0,1,.54.28,1.37,1.37,0,0,1,.52,1h0l.28-1.29h.38l-1,4.83a4.16,4.16,0,0,1-.28.92,2.11,2.11,0,0,1-.47.68,1.88,1.88,0,0,1-.71.43,3.47,3.47,0,0,1-1,.14,2.15,2.15,0,0,1-.68-.1,1.53,1.53,0,0,1-.56-.31,1.34,1.34,0,0,1-.46-1.17Zm2.5-5.21a1.83,1.83,0,0,0-.9.23,2.41,2.41,0,0,0-.67.6,2.74,2.74,0,0,0-.41.84,2.89,2.89,0,0,0-.15.91,2,2,0,0,0,.38,1.3,1.45,1.45,0,0,0,1.2.47,1.61,1.61,0,0,0,.9-.26,2.41,2.41,0,0,0,.64-.67,2.69,2.69,0,0,0,.39-.88,3.4,3.4,0,0,0,.13-.92,1.67,1.67,0,0,0-.16-.78,1.61,1.61,0,0,0-.38-.5,1.45,1.45,0,0,0-.49-.26A1.84,1.84,0,0,0,140.3,33.21Z"/><path class="cls-5" d="M143.91,34.46a1.88,1.88,0,0,1,.76-1.21,2.58,2.58,0,0,1,1.42-.37,3,3,0,0,1,.46,0,1.55,1.55,0,0,1,.51.18,1.22,1.22,0,0,1,.42.36,1,1,0,0,1,.18.62,3.09,3.09,0,0,1,0,.44c0,.18-.07.35-.11.53s-.08.34-.12.49l-.06.27-.11.44c0,.15-.07.31-.11.46s-.06.29-.08.42a2.13,2.13,0,0,0,0,.3.41.41,0,0,0,.06.23.26.26,0,0,0,.21.09.52.52,0,0,0,.17,0l.17,0-.06.34-.22,0h-.22a.41.41,0,0,1-.37-.18.61.61,0,0,1-.12-.34,1,1,0,0,1,0-.21,2.25,2.25,0,0,0,.05-.22h0a1.76,1.76,0,0,1-.37.48,2.94,2.94,0,0,1-.49.32,2.1,2.1,0,0,1-.53.19,2.44,2.44,0,0,1-.52.06,2.37,2.37,0,0,1-.61-.08,1.35,1.35,0,0,1-.5-.23,1.28,1.28,0,0,1-.34-.42,1.48,1.48,0,0,1-.12-.63,1.42,1.42,0,0,1,.19-.79,1.19,1.19,0,0,1,.5-.47,2.12,2.12,0,0,1,.71-.24,7.14,7.14,0,0,1,.83-.07c.35,0,.65,0,.89-.07a2.28,2.28,0,0,0,.57-.17.75.75,0,0,0,.31-.3,1.11,1.11,0,0,0,.09-.48,1,1,0,0,0-.29-.75,1.37,1.37,0,0,0-1-.28,1.91,1.91,0,0,0-1.11.3,1.58,1.58,0,0,0-.6,1Zm3.17.75h0a.72.72,0,0,1-.3.17,2.58,2.58,0,0,1-.42.11l-.46.07-.39,0c-.24,0-.47,0-.7,0a2.25,2.25,0,0,0-.62.17,1.21,1.21,0,0,0-.44.37,1.15,1.15,0,0,0-.16.66.88.88,0,0,0,.39.8,1.28,1.28,0,0,0,.41.18,2.54,2.54,0,0,0,.49,0,1.8,1.8,0,0,0,.79-.16,1.63,1.63,0,0,0,.58-.42,2.73,2.73,0,0,0,.41-.63q.15-.36.27-.75Z"/><path class="cls-5" d="M149.73,33h.37l-.28,1.22h0a2.77,2.77,0,0,1,.76-1,1.82,1.82,0,0,1,1.16-.38h.31l-.11.4a1,1,0,0,0-.3,0,1.44,1.44,0,0,0-.93.29,2.38,2.38,0,0,0-.64.7,4,4,0,0,0-.4.9q-.15.48-.24.87l-.44,2h-.38Z"/></g></svg>