<svg xmlns="http://www.w3.org/2000/svg" viewBox="0 0 41.28 39.38"><defs><style>.cls-1{fill:#47b4fa;}.cls-1,.cls-2,.cls-3{fill-rule:evenodd;}.cls-2{fill:#5be4e4;}.cls-3{fill:#0395c7;}</style></defs><title>Artboard 7</title><g id="logo"><path class="cls-1" d="M20.35,23.41H11.69A11.69,11.69,0,0,1,0,11.72v0A11.68,11.68,0,0,1,11.69,0H25.46A11.69,11.69,0,0,1,37.15,11.69v0A11.71,11.71,0,0,1,25.56,23.41h0l.69,4.83-5.92-4.83Z"/><path class="cls-2" d="M16.37,16H29.59A11.68,11.68,0,0,1,41.28,27.66v0A11.69,11.69,0,0,1,29.59,39.38H11.69A11.69,11.69,0,0,1,0,27.69v0A11.68,11.68,0,0,1,11.16,16h0l-.7-4.83L16.37,16Z"/><path class="cls-3" d="M3.14,19.69l.28-.3A11.68,11.68,0,0,1,11.16,16h0l-.7-4.83L16.37,16H29.59a11.71,11.71,0,0,1,6,1.63A11.48,11.48,0,0,1,33.72,20a11.7,11.7,0,0,1-8.16,3.43h0l.69,4.83-5.92-4.83H11.69A11.69,11.69,0,0,1,3.42,20l-.28-.29Z"/></g></svg>