<?xml version="1.0" encoding="utf-8"?>
<!-- Generator: Adobe Illustrator 23.0.1, SVG Export Plug-In . SVG Version: 6.00 Build 0)  -->
<svg version="1.1" id="Layer_1" xmlns="http://www.w3.org/2000/svg" xmlns:xlink="http://www.w3.org/1999/xlink" x="0px" y="0px"
	 viewBox="0 0 327.9 104.6" style="enable-background:new 0 0 327.9 104.6;" xml:space="preserve">
<style type="text/css">
	.st0{fill:#FFFFFF;}
	.st1{fill:url(#SVGID_1_);}
	.st2{fill:url(#SVGID_2_);}
	.st3{fill:url(#SVGID_3_);}
	.st4{fill:url(#SVGID_4_);}
	.st5{fill:url(#SVGID_5_);}
	.st6{fill:url(#SVGID_6_);}
	.st7{fill:url(#SVGID_7_);}
	.st8{fill:url(#SVGID_8_);}
	.st9{fill:url(#SVGID_9_);}
	.st10{fill:url(#SVGID_10_);}
</style>
<title>logo-white</title>
<g>
	<g>
		<path class="st0" d="M153.3,44.8c0,11.4-7.1,18-19.6,18h-9.7v14h-11.1v-49h20.8C146.1,27.8,153.3,34,153.3,44.8z M142.8,45.2
			c0-5.5-3.5-8.2-9.7-8.2h-9.2v16.6h9.2C139.3,53.6,142.8,50.8,142.8,45.2z"/>
		<path class="st0" d="M173.5,27.8v49h-11.1v-49H173.5z"/>
		<path class="st0" d="M218.8,67.3h-22.7l-3.9,9.5h-11.4l21.3-49h11.4l20.9,49h-11.8L218.8,67.3z M215.2,58.4l-7.7-19l-7.8,19H215.2
			z"/>
		<path class="st0" d="M276.9,27.8l-0.1,9.2h-24.1v12h22.1v9.2h-22.1v18.6h-11.1v-49H276.9z"/>
	</g>
	<g>
		<linearGradient id="SVGID_1_" gradientUnits="userSpaceOnUse" x1="-9.439" y1="18.1791" x2="45.23" y2="90.7274">
			<stop  offset="0" style="stop-color:#BC2A1B"/>
			<stop  offset="0.25" style="stop-color:#E53523"/>
			<stop  offset="0.5706" style="stop-color:#E7523E"/>
			<stop  offset="0.7346" style="stop-color:#F18024"/>
			<stop  offset="0.8335" style="stop-color:#F18024"/>
			<stop  offset="1" style="stop-color:#E7523E"/>
		</linearGradient>
		<path class="st1" d="M27,79.6l7.4,13.8C40.3,89.8,46,86,51.6,82.1l-23.2-4.3C27,77.5,26.4,78.3,27,79.6z"/>
		<linearGradient id="SVGID_2_" gradientUnits="userSpaceOnUse" x1="-28.7037" y1="35.6402" x2="23.7105" y2="105.1962">
			<stop  offset="0" style="stop-color:#BC2A1B"/>
			<stop  offset="0.25" style="stop-color:#E53523"/>
			<stop  offset="0.5706" style="stop-color:#E7523E"/>
			<stop  offset="0.7346" style="stop-color:#F18024"/>
			<stop  offset="0.8335" style="stop-color:#F18024"/>
			<stop  offset="1" style="stop-color:#E7523E"/>
		</linearGradient>
		<path class="st2" d="M18.8,76c-0.3-0.1-1.4,0.6-2.6,1.4l-16.1,12c-1.6,12.2,8.5,19.1,22.1,11.1c2.6-1.4,5.2-2.9,7.7-4.4l-9.4-17.7
			C19.9,77.1,19.1,76.1,18.8,76z"/>
		<linearGradient id="SVGID_3_" gradientUnits="userSpaceOnUse" x1="28.7662" y1="-1.9317" x2="79.943" y2="65.9822">
			<stop  offset="0" style="stop-color:#BC2A1B"/>
			<stop  offset="0.25" style="stop-color:#E53523"/>
			<stop  offset="0.5706" style="stop-color:#E7523E"/>
			<stop  offset="0.7346" style="stop-color:#F18024"/>
			<stop  offset="0.8335" style="stop-color:#F18024"/>
			<stop  offset="1" style="stop-color:#E7523E"/>
		</linearGradient>
		<path class="st3" d="M64.8,41.4l-9.5,7c-1.1,0.8-1.3,2.4-0.2,3.4l15.9,15.9c10-7.4,11.3-17.5,4.8-25.9l-6.4-1.4
			C68,40.1,66,40.5,64.8,41.4z"/>
		<linearGradient id="SVGID_4_" gradientUnits="userSpaceOnUse" x1="3.3763" y1="14.4598" x2="55.4045" y2="83.5035">
			<stop  offset="0" style="stop-color:#BC2A1B"/>
			<stop  offset="0.25" style="stop-color:#E53523"/>
			<stop  offset="0.5706" style="stop-color:#E7523E"/>
			<stop  offset="0.7346" style="stop-color:#F18024"/>
			<stop  offset="0.8335" style="stop-color:#F18024"/>
			<stop  offset="1" style="stop-color:#E7523E"/>
		</linearGradient>
		<path class="st4" d="M50.9,54.9c-1-1-2.8-1.1-3.9-0.3L26.1,70.2c-1.1,0.8-0.9,1.8,0.5,2l30.9,5.7c3.2-2.3,6.3-4.7,9.4-7.1
			L50.9,54.9z"/>
		<linearGradient id="SVGID_5_" gradientUnits="userSpaceOnUse" x1="21.2685" y1="0.5458" x2="74.3393" y2="70.9731">
			<stop  offset="0" style="stop-color:#BC2A1B"/>
			<stop  offset="0.25" style="stop-color:#E53523"/>
			<stop  offset="0.5706" style="stop-color:#E7523E"/>
			<stop  offset="0.7346" style="stop-color:#F18024"/>
			<stop  offset="0.8335" style="stop-color:#F18024"/>
			<stop  offset="1" style="stop-color:#E7523E"/>
		</linearGradient>
		<path class="st5" d="M57.7,37.8l-18.5-4c-1.4-0.3-1.7,0.3-0.7,1.3l9.3,9.3c1,1,2.8,1.1,3.9,0.3l6.4-4.8
			C59.3,39.1,59.1,38.1,57.7,37.8z"/>
		<linearGradient id="SVGID_6_" gradientUnits="userSpaceOnUse" x1="4.0581" y1="13.5475" x2="56.5823" y2="83.2495">
			<stop  offset="0" style="stop-color:#BC2A1B"/>
			<stop  offset="0.25" style="stop-color:#E53523"/>
			<stop  offset="0.5706" style="stop-color:#E7523E"/>
			<stop  offset="0.7346" style="stop-color:#F18024"/>
			<stop  offset="0.8335" style="stop-color:#F18024"/>
			<stop  offset="1" style="stop-color:#E7523E"/>
		</linearGradient>
		<path class="st6" d="M21.2,25.2L1.8,5.7c-2.4,4-2.5,10,0.6,16.8l18.1,3.9C21.9,26.8,22.3,26.2,21.2,25.2z"/>
		<linearGradient id="SVGID_7_" gradientUnits="userSpaceOnUse" x1="-17.7101" y1="28.7537" x2="33.9328" y2="97.2862">
			<stop  offset="0" style="stop-color:#BC2A1B"/>
			<stop  offset="0.25" style="stop-color:#E53523"/>
			<stop  offset="0.5706" style="stop-color:#E7523E"/>
			<stop  offset="0.7346" style="stop-color:#F18024"/>
			<stop  offset="0.8335" style="stop-color:#F18024"/>
			<stop  offset="1" style="stop-color:#E7523E"/>
		</linearGradient>
		<path class="st7" d="M15,68L6.5,52.1c0,5.4-0.4,10.9-1.1,16.2l8.3,1.5C15.1,70.1,15.7,69.3,15,68z"/>
		<linearGradient id="SVGID_8_" gradientUnits="userSpaceOnUse" x1="22.6301" y1="9.400275e-02" x2="76.1272" y2="71.087">
			<stop  offset="0" style="stop-color:#BC2A1B"/>
			<stop  offset="0.25" style="stop-color:#E53523"/>
			<stop  offset="0.5706" style="stop-color:#E7523E"/>
			<stop  offset="0.7346" style="stop-color:#F18024"/>
			<stop  offset="0.8335" style="stop-color:#F18024"/>
			<stop  offset="1" style="stop-color:#E7523E"/>
		</linearGradient>
		<path class="st8" d="M34.9,29.6l26.2,5.7c1.4,0.3,3.5-0.1,4.6-1l0.9-0.7C52.3,22.7,38.1,12.8,22.3,4.1c-6.8-4-12.8-4.2-16.8-2
			l25.1,25.1C31.6,28.2,33.5,29.3,34.9,29.6z"/>
		<linearGradient id="SVGID_9_" gradientUnits="userSpaceOnUse" x1="-25.2049" y1="36.1133" x2="24.4083" y2="101.9521">
			<stop  offset="0" style="stop-color:#BC2A1B"/>
			<stop  offset="0.25" style="stop-color:#E53523"/>
			<stop  offset="0.5706" style="stop-color:#E7523E"/>
			<stop  offset="0.7346" style="stop-color:#F18024"/>
			<stop  offset="0.8335" style="stop-color:#F18024"/>
			<stop  offset="1" style="stop-color:#E7523E"/>
		</linearGradient>
		<path class="st9" d="M8.9,74.2l-4.3-0.8C4,76,3.4,78.6,2.7,81.1l6.6-4.9C10.5,75.3,10.3,74.4,8.9,74.2z"/>
		<linearGradient id="SVGID_10_" gradientUnits="userSpaceOnUse" x1="0.6098" y1="15.4494" x2="52.4646" y2="84.2631">
			<stop  offset="0" style="stop-color:#BC2A1B"/>
			<stop  offset="0.25" style="stop-color:#E53523"/>
			<stop  offset="0.5706" style="stop-color:#E7523E"/>
			<stop  offset="0.7346" style="stop-color:#F18024"/>
			<stop  offset="0.8335" style="stop-color:#F18024"/>
			<stop  offset="1" style="stop-color:#E7523E"/>
		</linearGradient>
		<path class="st10" d="M19.5,65.4c0.7,1.3,2.1,1.6,3.3,0.7l20.5-15.3c1.1-0.8,1.3-2.4,0.2-3.4L29.1,33.1c-1-1-3-2.1-4.4-2.4
			L3.4,26.1c1.1,4.4,1.9,9,2.4,13.6L19.5,65.4z"/>
	</g>
</g>
</svg>
